<svg xmlns="http://www.w3.org/2000/svg" viewBox="0 0 432.55 124.53"><defs><style>.cls-1{fill:#f8fbf7;}</style></defs><g id="Capa_2" data-name="Capa 2"><g id="Capa_1-2" data-name="Capa 1"><path class="cls-1" d="M391.69,36.46a.72.72,0,0,1-.72-.72V7.81a2.7,2.7,0,0,0-2.69-2.69h-103V36.71a13.65,13.65,0,0,1,2.51-3.47,13.48,13.48,0,0,1,9.57-4h29.39a26.32,26.32,0,0,1,26.33,26.33V73.67h46.53a6.12,6.12,0,0,0,6.11-6.11V36.46ZM335.84,23.8H291.45a.73.73,0,0,1,0-1.45h44.39a.73.73,0,0,1,0,1.45Zm0-6H291.45a.72.72,0,0,1,0-1.44h44.39a.72.72,0,0,1,0,1.44Zm0-6H291.45a.73.73,0,0,1,0-1.45h44.39a.73.73,0,0,1,0,1.45ZM362.19,38.1A5.85,5.85,0,1,1,368,32.26,5.85,5.85,0,0,1,362.19,38.1Zm18.65,30.61a.73.73,0,0,1-.72.73H367.31a.73.73,0,0,1-.72-.73V63.59a.72.72,0,0,1,.72-.72h12.81a.72.72,0,0,1,.72.72Zm4.51-48.33a.73.73,0,0,1-.73.72H359a.73.73,0,0,1-.73-.72V10.13a.73.73,0,0,1,.73-.72h25.6a.73.73,0,0,1,.73.72ZM368,64.32h11.35V68H368Zm-87-14.81-1.54,21.61a.12.12,0,0,1-.24,0l-1.53-21.61Zm146.34-36v2a.72.72,0,0,0,.72.72h3.42a1,1,0,0,1,1,1V28.63a1,1,0,0,1-1,1h-3.42a.73.73,0,0,0-.72.72v2A2.7,2.7,0,0,1,424.74,35H392.41V10.86h32.33A2.69,2.69,0,0,1,427.43,13.55ZM392.85,75.11a1,1,0,0,1,1,1v2.56a1,1,0,0,1-1,1H261.06a1,1,0,0,1-1-1V76.1a1,1,0,0,1,1-1Zm-114.12-27h-3.87c-4.25-15.72-4.26-29.78,0-42.94h3.87V47.9A.88.88,0,0,0,278.73,48.06Zm5.1-42.94V48.06h-3.69a.88.88,0,0,0,0-.16V5.12Zm79.35,27.14a1,1,0,1,1-1-1A1,1,0,0,1,363.18,32.26Zm-1-4.4a4.4,4.4,0,1,0,4.4,4.4A4.41,4.41,0,0,0,362.19,27.86Zm0,6.83a2.43,2.43,0,1,1,2.43-2.43A2.43,2.43,0,0,1,362.19,34.69Zm-78.36-31h-3.67V1a1,1,0,0,1,1-1h1.71a1,1,0,0,1,1,1Z"/><path class="cls-1" d="M11.08,114.87c0,2.67.11,4.59.91,5.5.64.75,1.49,1.17,5.76,1.17,5.93,0,6.79-.26,9.24-5.76a1.42,1.42,0,0,1,1.66.32,50.88,50.88,0,0,1-2.24,7.74c-2.25-.11-6.84-.16-12.82-.16H8c-2.73,0-5.4,0-7.64.16-.43-.21-.59-1.28-.11-1.55L1.9,122c2.51-.42,3-.48,3-6V96.13c0-5.56-.48-5.72-3-6.09L.4,89.83C0,89.56,0,88.49.51,88.28c2.67.1,5.07.16,7.53.16s4.75-.06,7.1-.16a1.06,1.06,0,0,1,.11,1.55L14.07,90c-2.51.43-3,.53-3,6.09Z"/><path class="cls-1" d="M65.38,106.16c0,10.52-8,18.37-18.79,18.37-12.07,0-19-8.49-19-18,0-10.89,7.9-19,19.12-19C59,87.58,65.38,96.45,65.38,106.16ZM34.84,105c0,7.37,3.15,17.41,12.28,17.41,6.09,0,11-4.54,11-15.27,0-8.07-3.63-17.41-12.12-17.41C40.66,89.72,34.84,93.62,34.84,105Z"/><path class="cls-1" d="M66.93,122.29c-1-1.12-1.65-4.81-1.6-8.12A1.2,1.2,0,0,1,67,114c1,2.72,3.84,8.44,9.07,8.44,4.06,0,6.36-2.46,6.36-5.72,0-3-1.44-5.5-5.45-7.74l-2.29-1.28c-4-2.24-7.53-5.5-7.53-10.31,0-5.28,3.95-9.77,11.74-9.77a35.55,35.55,0,0,1,7.32,1.12,22.34,22.34,0,0,1,1.12,7.21,1.28,1.28,0,0,1-1.71.16c-.8-2.77-2.67-6.35-7.21-6.35-4.27,0-6,2.78-6,5.61,0,2.24,1.55,4.64,5.07,6.51l3.31,1.76c3.47,1.82,7.32,5.13,7.32,10.52,0,6.09-4.65,10.41-12.39,10.41A16.18,16.18,0,0,1,66.93,122.29Z"/><path class="cls-1" d="M138.54,97.41a1.36,1.36,0,0,1-1.71.1c-.91-3.36-3.31-7.79-10.36-7.79-6.78,0-13.62,4.8-13.62,15.75,0,11.37,7.1,16.93,14,16.93,6.73,0,9.67-4.49,11.16-8a1.07,1.07,0,0,1,1.6.21,20.62,20.62,0,0,1-2.56,8.12c-.64.11-1.28.32-1.87.48a31.54,31.54,0,0,1-8.33,1.28c-5.28,0-9.82-1.06-13.67-3.57-4.32-2.83-7.58-7.69-7.58-14.69a17.44,17.44,0,0,1,6.73-14.15,24.74,24.74,0,0,1,14.74-4.54,41.19,41.19,0,0,1,9.23,1.18l1.5.32C137.9,90.31,138,93.46,138.54,97.41Z"/><path class="cls-1" d="M143.56,96.45c0-5.13-.06-5.77-2.57-6l-1.39-.16a1.07,1.07,0,0,1,.06-1.49c3.36-.32,7.9-.48,12.28-.48,4.16,0,7.79.53,10.14,1.81a8.37,8.37,0,0,1,4.7,7.8c0,4.91-3.79,7.37-6.4,8.44-.32.16-.22.58,0,.9,4.27,7.21,6.94,11.75,9.45,13.83a6.88,6.88,0,0,0,3.68,1.66,1,1,0,0,1,.11,1.07,14.53,14.53,0,0,1-3.53.32c-5.12,0-7.9-2.09-11.16-7-1.44-2.24-2.93-5.18-4.21-7.26-1-1.61-1.55-1.82-3.32-1.82-1.6,0-1.65,0-1.65,1.18V116c0,5.66.48,5.82,3,6.14l1.17.16c.38.37.32,1.34-.1,1.55-2.35-.11-4.75-.16-7.1-.16s-4.76,0-7.21.16a1,1,0,0,1-.11-1.55l1.18-.16c2.5-.32,3-.48,3-6.14Zm6.19,7.69c0,1.7,0,1.81,2.56,1.81,5.24,0,7.64-2.56,7.64-7.63,0-4.22-2.72-7.91-7.37-7.91-2.78,0-2.83.16-2.83,2.62Z"/><path class="cls-1" d="M178.58,96.13c0-5.66-.48-5.88-3-6.2l-.85-.1c-.38-.38-.32-1.34.11-1.55,2,.1,4.53.16,6.88.16h10.2c3.42,0,6.52-.06,7.21-.16.21.9.53,5.12.86,7.42-.22.43-1.29.53-1.71.21-.86-3.09-1.66-4.38-3.37-4.86a18.07,18.07,0,0,0-4.27-.48h-3.58c-2.29,0-2.29.11-2.29,3.15v9c0,1.39.05,1.44,1.28,1.44h2.56c4.65,0,5.45,0,5.93-2.35l.37-1.82c.43-.37,1.44-.37,1.71.06,0,1.44-.16,3.36-.16,5.34s.11,3.9.16,5.6a1.51,1.51,0,0,1-1.71.06l-.37-2.14c-.38-2.24-1.28-2.35-5.93-2.35h-2.56c-1.23,0-1.28.11-1.28,1.44v6.79c0,2.72.1,4.64.9,5.55.65.75,1.55,1.12,6,1.17,6.78.06,7.95-1.44,9.82-5.76a1.26,1.26,0,0,1,1.71.32,34.05,34.05,0,0,1-2.24,7.74c-2.35-.11-6.94-.16-13.19-.16h-6.09c-2.35,0-5.6,0-8,.16-.42-.21-.48-1.18-.1-1.55l2-.21c2.51-.27,3-.43,3-6.09Z"/><path class="cls-1" d="M214,110.6c-1.39,0-1.34,0-1.82,1.44l-2.13,6.41c-1.07,3.15-.38,3.25,1.6,3.57l1.55.27c.37.37.32,1.34-.11,1.55-1.71-.11-3.74-.11-5.93-.16-1.76,0-3.41,0-5.28.16a1.19,1.19,0,0,1-.06-1.55l1.61-.27c1.54-.26,2.13-.69,2.93-2.45.64-1.39,1.5-3.63,2.62-6.52l7.31-19c.64-1.7,1.18-3,1-3.89,1.87-.38,3.63-2.57,3.74-2.57a1.05,1.05,0,0,1,.9.43c.86,2.4,1.55,4.91,2.41,7.32l7.69,22.37c1.22,3.58,1.49,3.9,4.21,4.43l.81.16a1.16,1.16,0,0,1,0,1.55c-2.19-.11-4.17-.16-6.94-.16-2.3,0-4.65.11-6.52.16a1.23,1.23,0,0,1-.16-1.55l1.18-.16c1.92-.27,2.19-.59,1.39-2.83L223.6,112c-.48-1.44-.7-1.44-2.19-1.44Zm6.67-2.41c1.5,0,1.71-.1,1.28-1.38l-2.24-6.41A38,38,0,0,0,218.2,96h-.1c-.22.37-.75,1.92-1.66,4.43l-2.4,6.25c-.54,1.54-.43,1.54.85,1.54Z"/><path class="cls-1" d="M242,96.45c0-5.13-.05-5.88-2.56-6.09l-1.12-.11a1.09,1.09,0,0,1,.05-1.49c3.85-.32,8.12-.48,13.35-.48a35.17,35.17,0,0,1,12.6,1.81,16.34,16.34,0,0,1,11,16,16.94,16.94,0,0,1-9.56,15.38c-3.79,1.92-8.38,2.56-13.24,2.56-3.26,0-5.77-.32-7.74-.32s-4.43,0-6.78.16c-.43-.21-.48-1.18-.11-1.55l1.17-.16c2.51-.32,3-.48,3-6.14Zm6.2,17.46c0,5.18.37,8,6,8,9.51,0,13.78-6.72,13.78-15.75,0-10.57-6.14-15.7-15.06-15.7a9.29,9.29,0,0,0-4.32.75c-.38.32-.43,1.44-.43,4Z"/><path class="cls-1" d="M314.32,106.16c0,10.52-8,18.37-18.8,18.37-12.07,0-19-8.49-19-18,0-10.89,7.9-19,19.12-19C308,87.58,314.32,96.45,314.32,106.16ZM283.77,105c0,7.37,3.15,17.41,12.28,17.41,6.09,0,11-4.54,11-15.27,0-8.07-3.63-17.41-12.12-17.41C289.59,89.72,283.77,93.62,283.77,105Z"/><path class="cls-1" d="M316.51,96.45c0-5.13-.06-5.77-2.57-6l-1.39-.16a1.07,1.07,0,0,1,.06-1.49c3.36-.32,7.9-.48,12.28-.48,4.16,0,7.79.53,10.14,1.81a8.37,8.37,0,0,1,4.7,7.8c0,4.91-3.79,7.37-6.4,8.44-.33.16-.22.58,0,.9,4.27,7.21,6.94,11.75,9.45,13.83a6.88,6.88,0,0,0,3.68,1.66,1,1,0,0,1,.11,1.07,14.53,14.53,0,0,1-3.53.32c-5.12,0-7.9-2.09-11.16-7-1.44-2.24-2.93-5.18-4.22-7.26-1-1.61-1.54-1.82-3.31-1.82-1.6,0-1.65,0-1.65,1.18V116c0,5.66.48,5.82,3,6.14l1.17.16c.38.37.32,1.34-.1,1.55-2.35-.11-4.76-.16-7.1-.16s-4.76,0-7.21.16a1,1,0,0,1-.11-1.55l1.17-.16c2.51-.32,3-.48,3-6.14Zm6.19,7.69c0,1.7,0,1.81,2.56,1.81,5.23,0,7.64-2.56,7.64-7.63,0-4.22-2.73-7.91-7.37-7.91-2.78,0-2.83.16-2.83,2.62Z"/><path class="cls-1" d="M351.53,96.13c0-5.66-.48-5.88-3-6.2l-.85-.1c-.38-.38-.32-1.34.1-1.55,2,.1,4.54.16,6.89.16h10.2c3.42,0,6.52-.06,7.21-.16.21.9.53,5.12.85,7.42-.21.43-1.28.53-1.7.21-.86-3.09-1.66-4.38-3.37-4.86a18.07,18.07,0,0,0-4.27-.48H360c-2.29,0-2.29.11-2.29,3.15v9c0,1.39,0,1.44,1.28,1.44h2.56c4.65,0,5.45,0,5.93-2.35l.37-1.82c.43-.37,1.44-.37,1.71.06-.05,1.44-.16,3.36-.16,5.34s.11,3.9.16,5.6a1.51,1.51,0,0,1-1.71.06l-.37-2.14c-.38-2.24-1.28-2.35-5.93-2.35H359c-1.23,0-1.28.11-1.28,1.44v6.79c0,2.72.1,4.64.9,5.55.65.75,1.55,1.12,6,1.17,6.78.06,7.95-1.44,9.82-5.76a1.26,1.26,0,0,1,1.71.32,34.05,34.05,0,0,1-2.24,7.74c-2.35-.11-6.94-.16-13.19-.16h-6.09c-2.35,0-5.6,0-8,.16-.42-.21-.48-1.18-.1-1.55l2-.21c2.51-.27,3-.43,3-6.09Z"/><path class="cls-1" d="M378.66,122.29c-1-1.12-1.66-4.81-1.6-8.12a1.19,1.19,0,0,1,1.65-.21c1,2.72,3.85,8.44,9.08,8.44,4.06,0,6.35-2.46,6.35-5.72,0-3-1.44-5.5-5.44-7.74l-2.3-1.28c-4-2.24-7.53-5.5-7.53-10.31,0-5.28,3.95-9.77,11.75-9.77a35.56,35.56,0,0,1,7.31,1.12,22.34,22.34,0,0,1,1.12,7.21,1.27,1.27,0,0,1-1.7.16c-.8-2.77-2.67-6.35-7.21-6.35-4.27,0-6,2.78-6,5.61,0,2.24,1.55,4.64,5.08,6.51l3.31,1.76c3.47,1.82,7.31,5.13,7.31,10.52,0,6.09-4.64,10.41-12.39,10.41A16.13,16.13,0,0,1,378.66,122.29Z"/></g></g></svg>