<svg xmlns="http://www.w3.org/2000/svg" xmlns:xlink="http://www.w3.org/1999/xlink" viewBox="0 0 2214.96 1430.7"><defs><style>.cls-1{fill:url(#linear-gradient);}.cls-2{fill:#bdd0fb;}.cls-3{fill:#dce5fe;}.cls-4{fill:url(#linear-gradient-2);}.cls-5{fill:#91b3fa;}.cls-6{fill:url(#linear-gradient-3);}.cls-7{fill:#7d97f4;}.cls-17,.cls-30,.cls-8{fill:#fff;}.cls-8{opacity:0.87;}.cls-9{fill:url(#linear-gradient-4);}.cls-10{fill:url(#linear-gradient-5);}.cls-11{fill:url(#linear-gradient-6);}.cls-12{fill:url(#linear-gradient-7);}.cls-13{fill:url(#linear-gradient-8);}.cls-14{fill:url(#linear-gradient-9);}.cls-15{fill:url(#linear-gradient-10);}.cls-16{fill:url(#linear-gradient-11);}.cls-18{fill:url(#linear-gradient-12);}.cls-19{fill:url(#linear-gradient-13);}.cls-20{fill:url(#linear-gradient-14);}.cls-21{fill:url(#linear-gradient-15);}.cls-22{fill:url(#linear-gradient-16);}.cls-23{fill:url(#linear-gradient-17);}.cls-24{fill:url(#linear-gradient-18);}.cls-25{fill:url(#linear-gradient-19);}.cls-26{fill:url(#linear-gradient-20);}.cls-27{fill:url(#linear-gradient-21);}.cls-28{fill:url(#linear-gradient-22);}.cls-29{fill:url(#linear-gradient-23);}.cls-30{opacity:0.6;}.cls-31{fill:url(#linear-gradient-24);}.cls-32{fill:url(#linear-gradient-25);}.cls-33{fill:url(#linear-gradient-26);}.cls-34{fill:url(#linear-gradient-27);}.cls-35{fill:url(#linear-gradient-28);}.cls-36{fill:url(#linear-gradient-29);}.cls-37{fill:url(#linear-gradient-30);}.cls-38{fill:url(#linear-gradient-31);}.cls-39{fill:url(#linear-gradient-32);}.cls-40{fill:url(#linear-gradient-33);}.cls-41{fill:url(#linear-gradient-34);}.cls-42{fill:url(#linear-gradient-35);}.cls-43{fill:url(#linear-gradient-36);}.cls-44{fill:url(#linear-gradient-37);}.cls-45{fill:url(#linear-gradient-38);}.cls-46{fill:url(#linear-gradient-39);}.cls-47{fill:url(#linear-gradient-40);}.cls-48{fill:url(#linear-gradient-41);}.cls-49{fill:url(#linear-gradient-42);}.cls-50{fill:url(#linear-gradient-43);}.cls-51{fill:url(#linear-gradient-44);}.cls-52{fill:url(#linear-gradient-45);}.cls-53{fill:url(#linear-gradient-46);}.cls-54{fill:url(#linear-gradient-47);}.cls-55{fill:url(#linear-gradient-48);}.cls-56{fill:url(#linear-gradient-49);}.cls-57{fill:url(#linear-gradient-50);}.cls-58{fill:url(#_32);}.cls-59{fill:url(#linear-gradient-51);}.cls-60{fill:url(#linear-gradient-52);}.cls-61{fill:url(#linear-gradient-53);}.cls-62{fill:url(#linear-gradient-54);}.cls-63{fill:url(#linear-gradient-55);}.cls-64{fill:url(#linear-gradient-56);}.cls-65{fill:url(#linear-gradient-57);}.cls-66{fill:url(#linear-gradient-58);}.cls-67{fill:url(#linear-gradient-59);}.cls-68{fill:url(#linear-gradient-60);}.cls-69{fill:url(#linear-gradient-61);}.cls-70{fill:url(#linear-gradient-62);}.cls-71{fill:url(#linear-gradient-63);}.cls-72{fill:url(#linear-gradient-64);}.cls-73{fill:url(#linear-gradient-65);}.cls-74{fill:url(#linear-gradient-66);}.cls-75{fill:url(#linear-gradient-67);}.cls-76{fill:url(#linear-gradient-68);}.cls-77{fill:url(#linear-gradient-69);}.cls-78{fill:url(#linear-gradient-70);}.cls-79{fill:url(#linear-gradient-71);}.cls-80{fill:url(#linear-gradient-72);}.cls-81{fill:url(#linear-gradient-73);}.cls-82{fill:url(#linear-gradient-74);}.cls-83{fill:url(#linear-gradient-75);}.cls-84{fill:url(#linear-gradient-76);}.cls-85{fill:url(#linear-gradient-77);}.cls-86{fill:url(#linear-gradient-78);}.cls-87{fill:url(#linear-gradient-79);}.cls-88{fill:url(#linear-gradient-80);}.cls-89{fill:url(#linear-gradient-81);}</style><linearGradient id="linear-gradient" x1="-1793" y1="750.4" x2="414.82" y2="750.4" gradientTransform="matrix(-1, 0, 0, 1, 414.82, 0)" gradientUnits="userSpaceOnUse"><stop offset="0" stop-color="#dae3fe"/><stop offset="1" stop-color="#e9effd"/></linearGradient><linearGradient id="linear-gradient-2" x1="1571.88" y1="181.75" x2="379.29" y2="1748.18" gradientUnits="userSpaceOnUse"><stop offset="0" stop-color="#09005d"/><stop offset="1" stop-color="#1a0f91"/></linearGradient><linearGradient id="linear-gradient-3" x1="943.42" y1="787.26" x2="1272.93" y2="787.26" gradientTransform="matrix(1, 0, 0, 1, 0, 0)" xlink:href="#linear-gradient"/><linearGradient id="linear-gradient-4" x1="2075.43" y1="132.08" x2="1409.82" y2="673.77" gradientTransform="translate(-1.87 54.19) rotate(1.17)" gradientUnits="userSpaceOnUse"><stop offset="0" stop-color="#fe7062"/><stop offset="1" stop-color="#ff928e"/></linearGradient><linearGradient id="linear-gradient-5" x1="1640.59" y1="-187.08" x2="1762.59" y2="480.91" gradientUnits="userSpaceOnUse"><stop offset="0" stop-color="#ff928e"/><stop offset="1" stop-color="#feb3b1"/></linearGradient><linearGradient id="linear-gradient-6" x1="2160.85" y1="237.01" x2="1495.21" y2="778.71" xlink:href="#linear-gradient-4"/><linearGradient id="linear-gradient-7" x1="2172.21" y1="250.97" x2="1506.58" y2="792.67" xlink:href="#linear-gradient-4"/><linearGradient id="linear-gradient-8" x1="2197.7" y1="282.28" x2="1532.06" y2="823.98" xlink:href="#linear-gradient-4"/><linearGradient id="linear-gradient-9" x1="1342.13" y1="398.16" x2="1958.33" y2="398.16" gradientUnits="userSpaceOnUse"><stop offset="0" stop-color="#4042e2"/><stop offset="1" stop-color="#4f52ff"/></linearGradient><linearGradient id="linear-gradient-10" x1="1374.51" y1="406.25" x2="1930.86" y2="406.25" gradientTransform="matrix(1, 0, 0, 1, 0, 0)" xlink:href="#linear-gradient"/><linearGradient id="linear-gradient-11" x1="210.86" y1="484.94" x2="-198.31" y2="1138.29" gradientTransform="translate(-8.06 1.96) rotate(-27.6)" xlink:href="#linear-gradient-9"/><linearGradient id="linear-gradient-12" x1="178.34" y1="402.54" x2="411.06" y2="402.54" gradientTransform="matrix(1, 0, 0, 1, 0, 0)" xlink:href="#linear-gradient"/><linearGradient id="linear-gradient-13" x1="186.33" y1="417.5" x2="419.05" y2="417.5" gradientTransform="matrix(1, 0, 0, 1, 0, 0)" xlink:href="#linear-gradient"/><linearGradient id="linear-gradient-14" x1="245.94" y1="579.23" x2="295.29" y2="579.23" gradientTransform="matrix(1, 0, 0, 1, 0, 0)" xlink:href="#linear-gradient"/><linearGradient id="linear-gradient-15" x1="309" y1="513.56" x2="471.54" y2="513.56" gradientTransform="matrix(1, 0, 0, 1, 0, 0)" xlink:href="#linear-gradient"/><linearGradient id="linear-gradient-16" x1="-501.26" y1="3586.41" x2="-675.24" y2="3883.34" gradientTransform="translate(-1089.37 -2952.21) rotate(-29.96)" xlink:href="#linear-gradient-4"/><linearGradient id="linear-gradient-17" x1="210.5" y1="511.41" x2="259.84" y2="511.41" gradientTransform="matrix(1, 0, 0, 1, 0, 0)" xlink:href="#linear-gradient"/><linearGradient id="linear-gradient-18" x1="273.56" y1="445.73" x2="436.09" y2="445.73" gradientTransform="matrix(1, 0, 0, 1, 0, 0)" xlink:href="#linear-gradient"/><linearGradient id="linear-gradient-19" x1="-498.1" y1="3509.96" x2="-672.07" y2="3806.89" gradientTransform="translate(-1089.37 -2952.21) rotate(-29.96)" xlink:href="#linear-gradient-4"/><linearGradient id="linear-gradient-20" x1="282.42" y1="642.49" x2="331.76" y2="642.49" gradientTransform="matrix(1, 0, 0, 1, 0, 0)" xlink:href="#linear-gradient"/><linearGradient id="linear-gradient-21" x1="345.48" y1="576.82" x2="508.01" y2="576.82" gradientTransform="matrix(1, 0, 0, 1, 0, 0)" xlink:href="#linear-gradient"/><linearGradient id="linear-gradient-22" x1="-469.41" y1="3605.07" x2="-643.38" y2="3902.01" gradientTransform="translate(-1089.37 -2952.21) rotate(-29.96)" xlink:href="#linear-gradient-4"/><linearGradient id="linear-gradient-23" x1="307.36" y1="704.18" x2="371.88" y2="704.18" gradientTransform="matrix(1, 0, 0, 1, 0, 0)" xlink:href="#linear-gradient"/><linearGradient id="linear-gradient-24" x1="377.74" y1="639.16" x2="540.28" y2="639.16" gradientTransform="matrix(1, 0, 0, 1, 0, 0)" xlink:href="#linear-gradient"/><linearGradient id="linear-gradient-25" x1="-445.82" y1="3675.37" x2="-674.73" y2="3994.54" gradientTransform="translate(-1089.37 -2952.21) rotate(-29.96)" xlink:href="#linear-gradient-4"/><linearGradient id="linear-gradient-26" x1="347.45" y1="769.41" x2="396.8" y2="769.41" gradientTransform="matrix(1, 0, 0, 1, 0, 0)" xlink:href="#linear-gradient"/><linearGradient id="linear-gradient-27" x1="410.51" y1="703.74" x2="573.05" y2="703.74" gradientTransform="matrix(1, 0, 0, 1, 0, 0)" xlink:href="#linear-gradient"/><linearGradient id="linear-gradient-28" x1="-412.76" y1="3638.78" x2="-586.74" y2="3935.71" gradientTransform="translate(-1089.37 -2952.21) rotate(-29.96)" xlink:href="#linear-gradient-4"/><linearGradient id="linear-gradient-29" x1="122.18" y1="335.96" x2="-17.18" y2="519.28" gradientTransform="translate(-8.06 1.96) rotate(-27.6)" xlink:href="#linear-gradient-2"/><linearGradient id="linear-gradient-30" x1="220.9" y1="319.7" x2="238.31" y2="319.7" gradientTransform="matrix(1, 0, 0, 1, 0, 0)" xlink:href="#linear-gradient"/><linearGradient id="linear-gradient-31" x1="-320.18" y1="3339.05" x2="-459.44" y2="3522.23" gradientTransform="translate(-1016.9 -2850.17) rotate(-28.11)" xlink:href="#linear-gradient-2"/><linearGradient id="linear-gradient-32" x1="225.14" y1="354.05" x2="231.26" y2="354.05" gradientTransform="matrix(1, 0, 0, 1, 0, 0)" xlink:href="#linear-gradient"/><linearGradient id="linear-gradient-33" x1="200.74" y1="369.78" x2="223.69" y2="369.78" gradientTransform="matrix(1, 0, 0, 1, 0, 0)" xlink:href="#linear-gradient"/><linearGradient id="linear-gradient-34" x1="-337.73" y1="3350.25" x2="-433.88" y2="3526.8" gradientTransform="translate(-1016.9 -2850.17) rotate(-28.11)" xlink:href="#linear-gradient-2"/><linearGradient id="linear-gradient-35" x1="-3197.58" y1="3264.91" x2="-3264.33" y2="3354.56" gradientTransform="matrix(0.74, -0.67, -0.67, -0.74, 5644.8, 385.34)" xlink:href="#linear-gradient-4"/><linearGradient id="linear-gradient-36" x1="1104.13" y1="4479.8" x2="1150.92" y2="4950.96" gradientTransform="matrix(-0.67, -0.74, -0.74, 0.67, 5257.48, -2102.01)" xlink:href="#linear-gradient-9"/><linearGradient id="linear-gradient-37" x1="-1646.82" y1="2561.72" x2="-1731.76" y2="2684.57" gradientTransform="matrix(0.01, -1, -1, -0.01, 3880.79, -1524.63)" xlink:href="#linear-gradient-4"/><linearGradient id="linear-gradient-38" x1="-1704.28" y1="2666.61" x2="-1650.35" y2="2666.61" gradientTransform="matrix(0.01, -1, -1, -0.01, 3880.79, -1524.63)" xlink:href="#linear-gradient-2"/><linearGradient id="linear-gradient-39" x1="-1695.45" y1="2730.28" x2="-1659.82" y2="2730.28" gradientTransform="matrix(0.01, -1, -1, -0.01, 3880.79, -1524.63)" xlink:href="#linear-gradient-2"/><linearGradient id="linear-gradient-40" x1="1220.95" y1="1064.24" x2="893.91" y2="1020.15" xlink:href="#linear-gradient-5"/><linearGradient id="linear-gradient-41" x1="1325.4" y1="839.76" x2="1341.18" y2="1242.86" gradientTransform="matrix(1, 0, 0, 1, 0, 0)" xlink:href="#linear-gradient-4"/><linearGradient id="linear-gradient-42" x1="17.18" y1="1113.9" x2="857.56" y2="1113.9" gradientUnits="userSpaceOnUse"><stop offset="0" stop-color="#020039"/><stop offset="1" stop-color="#090056"/></linearGradient><linearGradient id="linear-gradient-43" x1="116.56" y1="878.1" x2="794.49" y2="1357.61" xlink:href="#linear-gradient-9"/><linearGradient id="linear-gradient-44" x1="1305.03" y1="1113.9" x2="2145.41" y2="1113.9" xlink:href="#linear-gradient-42"/><linearGradient id="linear-gradient-45" x1="1330.33" y1="1114.42" x2="2095.31" y2="1114.42" xlink:href="#linear-gradient-9"/><linearGradient id="linear-gradient-46" x1="773.74" y1="810.21" x2="633.16" y2="953.66" gradientTransform="matrix(1, 0, 0, 1, 0, 0)" xlink:href="#linear-gradient-4"/><linearGradient id="linear-gradient-47" x1="868.46" y1="366.64" x2="868.46" y2="765.34" xlink:href="#linear-gradient-5"/><linearGradient id="linear-gradient-48" x1="1087.61" y1="673.31" x2="1052.7" y2="947.07" xlink:href="#linear-gradient-5"/><linearGradient id="linear-gradient-49" x1="1093.84" y1="366.64" x2="1093.84" y2="765.34" xlink:href="#linear-gradient-5"/><linearGradient id="linear-gradient-50" x1="801.58" y1="707.63" x2="52.81" y2="1695.24" gradientTransform="matrix(1, 0, 0, 1, 0, 0)" xlink:href="#linear-gradient-4"/><linearGradient id="_32" x1="675.5" y1="676.47" x2="539.54" y2="896.94" gradientUnits="userSpaceOnUse"><stop offset="0" stop-color="#ff928e"/><stop offset="0.53" stop-color="#fea6a3"/><stop offset="1" stop-color="#feb3b1"/></linearGradient><linearGradient id="linear-gradient-51" x1="1071.56" y1="560.88" x2="893.34" y2="957.73" xlink:href="#linear-gradient-5"/><linearGradient id="linear-gradient-52" x1="503.72" y1="981.93" x2="604.58" y2="981.93" gradientUnits="userSpaceOnUse"><stop offset="0" stop-color="#e1473d"/><stop offset="1" stop-color="#e9605a"/></linearGradient><linearGradient id="linear-gradient-53" x1="527.91" y1="870.92" x2="700.54" y2="870.92" xlink:href="#linear-gradient-52"/><linearGradient id="linear-gradient-54" x1="800.48" y1="530.05" x2="602.05" y2="743.17" xlink:href="#linear-gradient-5"/><linearGradient id="linear-gradient-55" x1="595.18" y1="542.26" x2="747.96" y2="738.96" xlink:href="#linear-gradient-42"/><linearGradient id="linear-gradient-56" x1="771.36" y1="502.93" x2="572.93" y2="716.06" xlink:href="#linear-gradient-5"/><linearGradient id="linear-gradient-57" x1="945.94" y1="1006.19" x2="1034.13" y2="1221.15" xlink:href="#linear-gradient-5"/><linearGradient id="linear-gradient-58" x1="1450.53" y1="983.81" x2="2048.72" y2="1302.27" gradientTransform="matrix(1, 0, 0, 1, 0, 0)" xlink:href="#linear-gradient-4"/><linearGradient id="linear-gradient-59" x1="1550.38" y1="526.49" x2="1550.38" y2="915.99" xlink:href="#linear-gradient-5"/><linearGradient id="linear-gradient-60" x1="1575.91" y1="1155.19" x2="2007.8" y2="1155.19" gradientTransform="matrix(1, 0, 0, 1, 0, 0)" xlink:href="#linear-gradient"/><linearGradient id="linear-gradient-61" x1="1798.65" y1="1112.29" x2="1890.45" y2="1523.99" xlink:href="#linear-gradient-2"/><linearGradient id="linear-gradient-62" x1="1526.11" y1="841.83" x2="2124.3" y2="1160.29" gradientTransform="matrix(1, 0, 0, 1, 0, 0)" xlink:href="#linear-gradient-4"/><linearGradient id="linear-gradient-63" x1="1630.81" y1="972.56" x2="1814.6" y2="1070.4" xlink:href="#linear-gradient-52"/><linearGradient id="linear-gradient-64" x1="1825.31" y1="1158.12" x2="1685.45" y2="1427.09" xlink:href="#linear-gradient-5"/><linearGradient id="linear-gradient-65" x1="1655.8" y1="658.34" x2="1466.56" y2="645.48" xlink:href="#linear-gradient-5"/><linearGradient id="linear-gradient-66" x1="1428.07" y1="640.08" x2="1631.89" y2="640.08" xlink:href="#linear-gradient-2"/><linearGradient id="linear-gradient-67" x1="3028.15" y1="3856.01" x2="3152.22" y2="3728.72" gradientTransform="matrix(-0.69, -0.73, -0.73, 0.69, 6450.5, 434.52)" xlink:href="#linear-gradient-5"/><linearGradient id="linear-gradient-68" x1="649.45" y1="1279.99" x2="655.19" y2="1562.56" xlink:href="#linear-gradient-42"/><linearGradient id="linear-gradient-69" x1="1507.86" y1="1262.56" x2="1513.6" y2="1545.16" xlink:href="#linear-gradient-42"/><linearGradient id="linear-gradient-70" x1="52.32" y1="1237.55" x2="131.97" y2="1145.09" gradientTransform="translate(1078.5 486.01) rotate(61.85)" xlink:href="#linear-gradient-52"/><linearGradient id="linear-gradient-71" x1="176.99" y1="1077.65" x2="-58.57" y2="1433.5" gradientTransform="translate(113.3 -7.6) rotate(5.65)" xlink:href="#linear-gradient-4"/><linearGradient id="linear-gradient-72" x1="169.96" y1="1087.85" x2="44.53" y2="1298.42" gradientTransform="matrix(1, 0, 0, 1, 0, 0)" xlink:href="#linear-gradient-4"/><linearGradient id="linear-gradient-73" x1="161.16" y1="1237" x2="299.83" y2="1076.04" gradientTransform="translate(847.22 100.22) rotate(45)" xlink:href="#linear-gradient-52"/><linearGradient id="linear-gradient-74" x1="378.19" y1="958.65" x2="-31.87" y2="1578.12" gradientTransform="translate(847.22 100.22) rotate(45)" xlink:href="#linear-gradient-4"/><linearGradient id="linear-gradient-75" x1="365.96" y1="976.4" x2="147.61" y2="1342.96" gradientTransform="matrix(1, 0, 0, 1, 0, 0)" xlink:href="#linear-gradient-4"/><linearGradient id="linear-gradient-76" x1="228.36" y1="1472.68" x2="371.05" y2="1307.05" gradientTransform="translate(1571.62 667.28) rotate(78.02)" xlink:href="#linear-gradient-52"/><linearGradient id="linear-gradient-77" x1="451.68" y1="1186.25" x2="29.74" y2="1823.69" gradientTransform="translate(1031.38 117.44) rotate(45)" xlink:href="#linear-gradient-4"/><linearGradient id="linear-gradient-78" x1="439.09" y1="1204.52" x2="214.42" y2="1581.71" gradientTransform="matrix(1, 0, 0, 1, 0, 0)" xlink:href="#linear-gradient-4"/><linearGradient id="linear-gradient-79" x1="403.75" y1="1282.6" x2="508.3" y2="1161.25" gradientTransform="matrix(0.08, 1, -1, 0.08, 1623.16, 554.55)" xlink:href="#linear-gradient-52"/><linearGradient id="linear-gradient-80" x1="275.56" y1="1193.97" x2="586.05" y2="1147.47" gradientTransform="translate(968.89 -21.51) rotate(45)" xlink:href="#linear-gradient-4"/><linearGradient id="linear-gradient-81" x1="558.15" y1="1086.12" x2="393.53" y2="1362.49" gradientTransform="matrix(1, 0, 0, 1, 0, 0)" xlink:href="#linear-gradient-4"/></defs><g id="Capa_2" data-name="Capa 2"><g id="Illustration"><path class="cls-1" d="M1628.69,109.59c34.57,10.29,86.27,57,131.61,131.62,55.77,91.74,88.9,99.78,167.79,54.58S2099.67,281,2166.74,401.3s-50.42,213.91-159.33,360.52,108.54,108.69,179,279.93-28.9,363.34-355.77,361c-327.32-2.28-822.11,2.1-822.11,2.1s-458.86,40.48-625.95-64.11,38.43-155.46-117-222.34S-52,1047.06,15.91,874.2,180,737.14,242.11,690.91s99.39-96.39,10.65-178.65S96.08,374.57,140.94,265.59C205.31,109.22,361.51,89.05,533.12,155.32s200.74,151.14,484,102C1175.05,229.93,1334.28,22,1628.69,109.59Z"/><path class="cls-2" d="M1547.49,1374.21a2.16,2.16,0,0,0,4-1.59c-7.91-34.62-25.75-146.11,56.82-199.68,96.26-62.44,262.09-89.52,160.49-466.76a21.46,21.46,0,0,0-31.88-12.73c-56.54,34.37-192.21,129.62-199.34,255.88-9,159.73,18.6,193.56,4.45,252.36C1517,1305.67,1536.24,1355.66,1547.49,1374.21Z"/><path class="cls-2" d="M1503.86,1382.45a1.23,1.23,0,0,1-2.4-.49c9-62.1,34.83-258,27.47-414.44-8.87-188.51-42.42-271.36-57.17-367.37s46.11-217.67,209-178.35c133,32.09,237.54,54,286.53,46.9a11.77,11.77,0,0,1,12.13,17c-28.14,55.95-104.57,182.37-224.84,192.43-154.84,12.95-157-29.45-189.63,11.66s-30.93,81.47-28.41,157.12C1539,919.78,1549.24,1207.33,1503.86,1382.45Z"/><path class="cls-3" d="M1523.14,785a305.34,305.34,0,0,1-11.43-35.17,320.34,320.34,0,0,1-7.43-36.12c-3.48-24.34-4.17-49.39.24-74a154.54,154.54,0,0,1,11-35.81,127.43,127.43,0,0,1,20.27-31.73,140.29,140.29,0,0,1,28.59-24.36c5.2-3.25,10.34-6.6,15.73-9.57,5.27-3.14,10.76-5.93,16.23-8.75a276.51,276.51,0,0,1,34.12-14.18,227.08,227.08,0,0,1,36-8.6,236.77,236.77,0,0,1,36.81-2.69c12.29,0,24.5.86,36.62,2,24.24,2.36,48.17,5.74,72.21,7a313.45,313.45,0,0,0,71.87-4h0a1.93,1.93,0,0,1,.71,3.8,318.25,318.25,0,0,1-72.82,6c-24.41-.64-48.57-3.74-72.6-5.59s-48-2.2-71.52,1.75a219.7,219.7,0,0,0-34.52,8.69,268.2,268.2,0,0,0-32.77,14.1c-5.26,2.8-10.54,5.56-15.64,8.69-5.19,2.94-10.17,6.27-15.2,9.5a131.65,131.65,0,0,0-26.43,22.76c-15.31,17.6-24.58,39.82-28.65,62.92s-3.65,47.2-.33,70.76a340.14,340.14,0,0,0,6.88,35.11,298.89,298.89,0,0,0,10.61,34l.07.17a4.64,4.64,0,0,1-8.64,3.38Z"/><path class="cls-2" d="M1532.22,1370.06a1.35,1.35,0,0,1-2.39-1.23c8.18-22,25.92-79.26,21.71-154.31-5.43-96.79-76.55-330.41,107.29-372.68,162-37.25,257.68-45.4,302.58-76.86a9.65,9.65,0,0,1,15.23,8.21c-2.06,57.9-17.18,210.76-118.38,248.7-125.58,47.08-247.51-4.5-287.53,40.71C1531.9,1106.48,1597.37,1274.59,1532.22,1370.06Z"/><path class="cls-3" d="M1542.82,1097.83a306.8,306.8,0,0,1-.64-31.32c.29-10.39.92-20.79,2-31.16a319.76,319.76,0,0,1,12.33-61.51,247.39,247.39,0,0,1,11.33-29.6,198.14,198.14,0,0,1,15.94-27.73A158.89,158.89,0,0,1,1605,892.18l6.26-5.21c1.06-.84,2-1.77,3.17-2.54l3.36-2.33c2.26-1.49,4.4-3.19,6.78-4.51l7.1-4,1.78-1,1.86-.83,3.71-1.68a72.06,72.06,0,0,1,7.51-3.12l7.7-2.63c2.56-.94,5.15-1.42,7.73-2.15a184.1,184.1,0,0,1,31.55-5c21.29-1.65,42.31,1.16,62.57,3.68,20.26,2.69,40.28,4.65,60,1.6s38.51-11,55.92-21.54h0a1.74,1.74,0,0,1,2,2.88,163.53,163.53,0,0,1-26.53,16.49,131.92,131.92,0,0,1-29.82,10.45A156.51,156.51,0,0,1,1786.1,874c-10.53,0-20.94-.78-31.21-1.63s-20.38-1.89-30.43-2.33a221.76,221.76,0,0,0-29.87.5,169.85,169.85,0,0,0-29.12,5.17c-2.35.71-4.81,1.24-7.06,2.09l-6.87,2.39a60.15,60.15,0,0,0-6.67,2.84l-3.3,1.5-1.65.75-1.58.9-6.28,3.6c-2.11,1.17-4,2.72-6,4.06l-3,2.07c-1,.69-1.87,1.53-2.81,2.29l-5.56,4.68a153.11,153.11,0,0,0-19.24,21.93c-11.24,16.09-19.67,34.27-26,53.26-3,9.52-5.78,19.19-8,29s-3.89,19.78-5.38,29.78a413.1,413.1,0,0,0-4.11,60.46v.18a4.64,4.64,0,0,1-9.27.37Z"/><path class="cls-2" d="M751.28,1016.34s6.1-159.91-67-203.78S471.55,739.92,469.59,510.15c-1.15-134.52-3.63-193.36-5.49-219a15.14,15.14,0,0,1,18.11-16c69.59,14.15,295.5,71.5,340.81,226.9C876.73,686.29,751.28,1016.34,751.28,1016.34Z"/><path class="cls-3" d="M535.14,340c5.35,4.93,10.48,9.94,15.55,15.06,2.54,2.55,5,5.16,7.48,7.78s5,5.19,7.38,7.87c4.85,5.31,9.74,10.6,14.44,16.05l7.11,8.11,6.95,8.26,6.89,8.31,6.71,8.46c4.49,5.62,9,11.27,13.25,17.05,8.76,11.43,17,23.24,25.34,35,8,12,16.16,23.87,23.62,36.2l5.71,9.18,2.86,4.59,2.72,4.67L692,545.26l2.69,4.69,2.54,4.77,5.08,9.55,5.09,9.55,2.54,4.78,2.39,4.85c6.26,13,12.9,25.77,18.54,39.24,1.51,3.31,2.79,6.71,4.15,10.08s2.72,6.74,4,10.14l3.7,10.26,1.83,5.13,1.68,5.18,3.36,10.36,3,10.46c2.12,7,3.7,14,5.55,21.05a605.08,605.08,0,0,1,14,85.73,661.84,661.84,0,0,1,2.31,86.67q-.9,21.64-3.14,43.21c-1.49,14.4-3.44,28.61-6.37,43a4.81,4.81,0,0,1-9.47-1.63l0-.2a633.94,633.94,0,0,0,6.09-84.71,728.69,728.69,0,0,0-4-84.89A641.31,641.31,0,0,0,743.15,709c-6.94-27.36-15.37-54.38-26.51-80.27-22.56-51.9-50.32-101.88-81.1-149.68L623.7,461.32c-3.88-6-8.15-11.67-12.18-17.54s-8.23-11.62-12.46-17.34l-6.32-8.62-6.51-8.46a832.28,832.28,0,0,0-54.87-65.45l-.06-.07a2.73,2.73,0,0,1,3.84-3.87Z"/><path class="cls-2" d="M773,1363.72c11.36,5.52-108-143.35-146.05-377.72C609,875.55,608.19,737.09,545,684c-52.56-44.2-230.74-15.48-289-4.6a8.75,8.75,0,0,0-4,15.32c28.07,23.38,88.12,78.57,103.93,134.36,20.84,73.54,91,120.09,153.71,132.52s97.6,24.6,128.51,124.68S740.65,1348,773,1363.72Z"/><path class="cls-3" d="M338.15,710.25a283,283,0,0,1,109.14,26.88,221.66,221.66,0,0,1,48,30.5,192.31,192.31,0,0,1,37.89,42.69l3.85,6.06c1.26,2,2.34,4.16,3.52,6.24s2.34,4.2,3.38,6.29l3.14,6.27q6.32,12.52,12.45,25.14,12.27,25.21,23.71,50.84c15.28,34.15,29.46,68.77,41.45,104.29a1.87,1.87,0,0,1-3.51,1.31l0,0c-7.06-17.2-14.42-34.35-22.11-51.31s-15.4-33.93-23.38-50.76-16-33.63-24.34-50.31q-6.13-12.54-12.49-25l-3.15-6.24c-1-2.08-2.18-4-3.27-6s-2.12-4-3.31-6l-3.63-5.79c-9.7-15.43-22.13-29-35.81-41.07a212.24,212.24,0,0,0-21.9-16.5l-2.86-1.91-2.93-1.8c-2-1.19-3.89-2.43-5.87-3.59-4-2.24-8-4.54-12.11-6.58a284.29,284.29,0,0,0-51.48-20,297.86,297.86,0,0,0-54.43-10.57H338a1.5,1.5,0,0,1,.2-3Z"/><path class="cls-2" d="M716.54,1423.65c6.73,3.55-37.92-73.31-41.35-141s-18.7-183.29-77.1-252.42-122.33-75.44-202.91-12.59c-67.14,52.37-109,78.8-133.59,83.72a9.28,9.28,0,0,0-6.23,13.53c15.76,29,60.3,95.66,135.09,91,95.39-6,211-68,246.24-16.26s30.72,80.68,31.8,105.19S672,1400.16,716.54,1423.65Z"/><path class="cls-3" d="M422.33,1100.71a187.27,187.27,0,0,1,16.58-14,216.84,216.84,0,0,1,17.87-12.39,178.38,178.38,0,0,1,39.57-18.75,124.2,124.2,0,0,1,21.71-4.91,92.6,92.6,0,0,1,22.57-.1c1.88.3,3.77.48,5.64.9s3.76.79,5.54,1.3l10.56,3.28,10.33,4,10,4.81a126.13,126.13,0,0,1,34.89,27.32c9.95,11,17.7,23.66,24.07,36.76,1.61,3.28,3.24,6.54,4.53,9.94s2.81,6.71,4.07,10.12l3.52,10.28c1.25,3.41,2,7,3,10.42a372.86,372.86,0,0,1,9,42.26,1.68,1.68,0,0,1-3.28.68v-.06c-3.43-13.85-6.7-27.74-11.37-41.15-2.12-6.77-4.79-13.33-7.27-19.94-1.34-3.27-2.86-6.45-4.28-9.68s-3-6.34-4.68-9.44a159.58,159.58,0,0,0-23.82-34.22,122.31,122.31,0,0,0-32.77-25l-9.37-4.43-9.7-3.71-10-3c-1.65-.47-3.26-.78-4.89-1.18s-3.31-.54-5-.83a83.29,83.29,0,0,0-20.27-.06,116.12,116.12,0,0,0-20.22,4.07,196.54,196.54,0,0,0-38.63,16.32c-6.18,3.41-12.31,7-18.27,10.81s-11.8,7.93-17.4,12.19l0,0a1.74,1.74,0,0,1-2.26-2.64Z"/><path class="cls-4" d="M737.79,159.55,1484,167.76c41.25.46,73.6,36.05,73.58,80.77l-.67,1106.17c0,31-25.07,56.62-55.29,56.75l-800,3.53c-28.22.12-51.38-23.48-51.38-52.47V253.9C650.22,201.37,689.42,159,737.79,159.55Z"/><path class="cls-5" d="M1421.8,265.59H794.54a47.62,47.62,0,0,0-47.43,47.3v912.94c0,25.62,21.13,45.49,47.43,45.49H1421.8c26.31,0,47.83-19.87,47.83-45.49V312.89C1469.63,287.27,1448.11,265.59,1421.8,265.59Z"/><path class="cls-6" d="M1069.84,1043.52v-40.18c-41.88-1.68-83.31-11.56-112.74-24.45a23.23,23.23,0,0,1-12.84-27.45L954.47,914a23.42,23.42,0,0,1,31.8-15.33c29.18,12.24,65.22,21.92,104.09,21.92,40.34,0,70.43-13.68,70.43-41.71,0-25.3-23.25-40.34-79.32-55.39C1001.47,801.62,944,766.75,944,696.32c0-63.59,46.5-112.14,127.18-125.13V531a23.42,23.42,0,0,1,23.41-23.42h23.61A23.42,23.42,0,0,1,1141.64,531v36.07c38.76,1.55,67,8.18,89.36,16a23.3,23.3,0,0,1,14.56,28.12l-9.39,34.61a23.35,23.35,0,0,1-30.82,15.77,243.86,243.86,0,0,0-87.64-15.91c-47.87,0-61.54,19.83-61.54,37.61,0,21.88,28.72,36.92,90.94,56.07C1236,766.06,1272.93,803,1272.93,869.31c0,60.86-45.13,115.56-132.66,129.24v45a23.41,23.41,0,0,1-23.41,23.41h-23.61A23.41,23.41,0,0,1,1069.84,1043.52Z"/><path class="cls-7" d="M2020.39,764.52l-385.72-34.23a30.43,30.43,0,0,1-27.74-30.14l-1.42-260.07a30.43,30.43,0,0,1,32.54-30.52l410.73,28.58a30.42,30.42,0,0,1,28.19,33l-23.58,265.73A30.43,30.43,0,0,1,2020.39,764.52Z"/><path class="cls-8" d="M1628.12,465.25l-2.55,224.55a18.83,18.83,0,0,0,17,19l369.87,36.73a18.83,18.83,0,0,0,20.6-17.06l21.31-240.11a18.82,18.82,0,0,0-17.72-20.45L1648,446.68A18.82,18.82,0,0,0,1628.12,465.25Z"/><path class="cls-7" d="M1803.46,661.44l209.32,12.29a3.81,3.81,0,0,1,3.58,4.14l-.3,3.36a3.81,3.81,0,0,1-4.08,3.46l-209-15.64a3.81,3.81,0,0,1-3.51-4.14h0A3.82,3.82,0,0,1,1803.46,661.44Z"/><path class="cls-7" d="M1797.89,682.41l-.13,1.44a3.82,3.82,0,0,0,3.46,4.13L2010,706.51a3.82,3.82,0,0,0,4.13-3.46l.13-1.44a3.82,3.82,0,0,0-3.46-4.13L1802,679A3.82,3.82,0,0,0,1797.89,682.41Z"/><path class="cls-7" d="M1859.59,706.75l0,.63a3.8,3.8,0,0,0,3.46,4.13l145.4,12.91a3.81,3.81,0,0,0,4.13-3.46l.26-3a3.8,3.8,0,0,0-3.52-4.13l-145.61-10.58A3.82,3.82,0,0,0,1859.59,706.75Z"/><path class="cls-9" d="M1988.06,671.62l-455.21-9.27a35.79,35.79,0,0,1-35-33.14l-22.49-305a35.77,35.77,0,0,1,35.73-38.4l484.08.63A35.78,35.78,0,0,1,2030.93,323l-6.38,313.59A35.78,35.78,0,0,1,1988.06,671.62Z"/><path class="cls-10" d="M1503.94,352l15,263.62a22.12,22.12,0,0,0,21.41,20.85l436.81,13.47a22.12,22.12,0,0,0,22.8-21.66l5.77-283.36a22.11,22.11,0,0,0-22.42-22.57l-457.57,6.27A22.14,22.14,0,0,0,1503.94,352Z"/><path class="cls-11" d="M1725.33,568.07l246.53-2.35a4.48,4.48,0,0,1,4.52,4.57l-.08,4a4.48,4.48,0,0,1-4.51,4.39L1725.35,577a4.48,4.48,0,0,1-4.45-4.57h0A4.48,4.48,0,0,1,1725.33,568.07Z"/><path class="cls-12" d="M1720.48,593.11l0,1.7a4.49,4.49,0,0,0,4.39,4.57l246.37,5a4.49,4.49,0,0,0,4.58-4.39l0-1.69a4.48,4.48,0,0,0-4.39-4.57l-246.37-5A4.47,4.47,0,0,0,1720.48,593.11Z"/><path class="cls-13" d="M1794.81,616.72l0,.75a4.48,4.48,0,0,0,4.39,4.57l171.59,3.49a4.49,4.49,0,0,0,4.58-4.39l.07-3.49a4.48,4.48,0,0,0-4.46-4.57l-171.66-.75A4.48,4.48,0,0,0,1794.81,616.72Z"/><path class="cls-14" d="M1918.65,611.79h-505a39.69,39.69,0,0,1-39.51-36l-31.82-337.67a39.67,39.67,0,0,1,38.75-43.4l536.83-10.22a39.68,39.68,0,0,1,40.44,39.67v347.9A39.69,39.69,0,0,1,1918.65,611.79Z"/><path class="cls-15" d="M1374.58,268.25l22.58,292a24.53,24.53,0,0,0,24.21,22.65L1906.06,588a24.54,24.54,0,0,0,24.8-24.54V249.07a24.54,24.54,0,0,0-25.37-24.53l-507.27,17.29A24.56,24.56,0,0,0,1374.58,268.25Z"/><path class="cls-7" d="M1633.35,265.58l273.32-8.17a5,5,0,0,1,5.12,5v4.41a5,5,0,0,1-4.9,5l-273.33,3.77a5,5,0,0,1-5-5h0A5,5,0,0,1,1633.35,265.58Z"/><rect class="cls-7" x="1628.52" y="288.5" width="283.27" height="11.82" rx="4.97"/><path class="cls-7" d="M1561.77,539.26a2.23,2.23,0,0,1-2.23-2.23l0-6.69a2.23,2.23,0,0,1,2.23-2.23h0a2.22,2.22,0,0,1,2.23,2.22l0,6.69a2.24,2.24,0,0,1-2.22,2.24Zm-.06-22.3a2.24,2.24,0,0,1-2.23-2.23V508a2.22,2.22,0,0,1,2.22-2.23h0a2.23,2.23,0,0,1,2.23,2.22v6.69a2.23,2.23,0,0,1-2.22,2.24Zm0-22.3a2.23,2.23,0,0,1-2.23-2.23l0-6.69a2.22,2.22,0,0,1,2.22-2.23h0a2.22,2.22,0,0,1,2.23,2.22l0,6.69a2.25,2.25,0,0,1-2.23,2.24Zm-.06-22.3a2.23,2.23,0,0,1-2.23-2.23l0-6.69a2.23,2.23,0,0,1,2.23-2.23h0a2.22,2.22,0,0,1,2.23,2.22l0,6.69a2.24,2.24,0,0,1-2.22,2.24Z"/><path class="cls-7" d="M1673.77,532.9a2.23,2.23,0,0,1-2.23-2.23V524a2.23,2.23,0,0,1,4.46,0v6.69A2.23,2.23,0,0,1,1673.77,532.9Zm0-22.3a2.23,2.23,0,0,1-2.23-2.23v-6.69a2.23,2.23,0,1,1,4.46,0v6.69A2.23,2.23,0,0,1,1673.77,510.6Zm0-22.3a2.23,2.23,0,0,1-2.23-2.23v-6.69a2.23,2.23,0,0,1,4.46,0v6.69A2.23,2.23,0,0,1,1673.77,488.3Zm0-22.3a2.23,2.23,0,0,1-2.23-2.23v-6.69a2.23,2.23,0,1,1,4.46,0v6.69A2.23,2.23,0,0,1,1673.77,466Zm0-22.3a2.23,2.23,0,0,1-2.23-2.23v-6.69a2.23,2.23,0,0,1,4.46,0v6.69A2.23,2.23,0,0,1,1673.77,443.7Z"/><path class="cls-7" d="M1759.2,551.33a2.23,2.23,0,0,1-2.23-2.16l-.13-4a2.24,2.24,0,0,1,2.16-2.3,2.18,2.18,0,0,1,2.3,2.16l.13,4a2.24,2.24,0,0,1-2.16,2.3Zm-.61-19.6a2.23,2.23,0,0,1-2.23-2.16l-.21-6.68a2.23,2.23,0,0,1,4.46-.14l.21,6.68a2.22,2.22,0,0,1-2.16,2.3Zm-.69-22.28a2.24,2.24,0,0,1-2.23-2.17l-.21-6.68a2.23,2.23,0,0,1,4.46-.14l.21,6.69a2.22,2.22,0,0,1-2.16,2.29Zm-.69-22.29A2.23,2.23,0,0,1,1755,485l-.21-6.68a2.23,2.23,0,1,1,4.46-.14l.21,6.69a2.23,2.23,0,0,1-2.17,2.29Zm-.7-22.29a2.22,2.22,0,0,1-2.22-2.16l-.21-6.69a2.23,2.23,0,0,1,2.16-2.3,2.18,2.18,0,0,1,2.3,2.16l.2,6.69a2.23,2.23,0,0,1-2.16,2.3Zm-.69-22.29a2.24,2.24,0,0,1-2.23-2.16l-.2-6.69a2.23,2.23,0,0,1,2.16-2.3,2.19,2.19,0,0,1,2.29,2.16l.21,6.69a2.23,2.23,0,0,1-2.16,2.3Zm-.69-22.29a2.23,2.23,0,0,1-2.23-2.16l-.2-6.69a2.22,2.22,0,0,1,2.15-2.3,2.2,2.2,0,0,1,2.3,2.16l.21,6.69a2.23,2.23,0,0,1-2.16,2.3Z"/><path class="cls-7" d="M1840.4,538.85a2.23,2.23,0,0,1-2.23-2.23v-6.69a2.23,2.23,0,0,1,4.46,0v6.69A2.23,2.23,0,0,1,1840.4,538.85Zm0-22.3a2.23,2.23,0,0,1-2.23-2.23v-6.69a2.23,2.23,0,0,1,4.46,0v6.69A2.23,2.23,0,0,1,1840.4,516.55Zm0-22.3a2.23,2.23,0,0,1-2.23-2.23v-6.69a2.23,2.23,0,0,1,4.46,0V492A2.23,2.23,0,0,1,1840.4,494.25Zm0-22.3a2.23,2.23,0,0,1-2.23-2.23V463a2.23,2.23,0,0,1,4.46,0v6.69A2.23,2.23,0,0,1,1840.4,472Zm0-22.3a2.23,2.23,0,0,1-2.23-2.23v-6.69a2.23,2.23,0,0,1,4.46,0v6.69A2.23,2.23,0,0,1,1840.4,449.65Zm0-22.3a2.23,2.23,0,0,1-2.23-2.23v-6.69a2.23,2.23,0,1,1,4.46,0v6.69A2.23,2.23,0,0,1,1840.4,427.35Zm0-22.3a2.23,2.23,0,0,1-2.23-2.23v-6.69a2.23,2.23,0,0,1,4.46,0v6.69A2.23,2.23,0,0,1,1840.4,405.05Zm0-22.3a2.23,2.23,0,0,1-2.23-2.23v-6.69a2.23,2.23,0,0,1,4.46,0v6.69A2.23,2.23,0,0,1,1840.4,382.75Zm0-22.3a2.23,2.23,0,0,1-2.23-2.23v-6.69a2.23,2.23,0,0,1,4.46,0v6.69A2.23,2.23,0,0,1,1840.4,360.45Z"/><path class="cls-7" d="M1441.88,565.17a3.34,3.34,0,0,1-3.33-3.06l-22.86-270a3.34,3.34,0,1,1,6.66-.56l22.86,270a3.34,3.34,0,0,1-3,3.61Z"/><polygon class="cls-7" points="1408.85 306.08 1419.19 293.82 1431.45 304.17 1430.63 294.57 1418.38 284.23 1408.03 296.49 1408.85 306.08"/><path class="cls-7" d="M1894.94,552.44h-470.4a3.35,3.35,0,1,1,0-6.69h470.4a3.35,3.35,0,0,1,0,6.69Z"/><polygon class="cls-7" points="1881.61 560.44 1892.96 549.1 1881.61 537.76 1891.24 537.76 1902.58 549.1 1891.24 560.44 1881.61 560.44"/><path class="cls-7" d="M1461.45,474.87a3.34,3.34,0,0,1-.44-6.66c2.47-.33,248.76-34.06,383.59-133.47a3.34,3.34,0,1,1,4,5.38c-136.22,100.45-384.19,134.39-386.68,134.72A3.25,3.25,0,0,1,1461.45,474.87Z"/><path class="cls-7" d="M1847.62,355.23l-.27,0a3.33,3.33,0,0,1-3.07-3.59l1-13.14-18.52-1.1a3.35,3.35,0,0,1,.39-6.68l21.93,1.3a3.34,3.34,0,0,1,3.14,3.6l-1.3,16.54A3.35,3.35,0,0,1,1847.62,355.23Z"/><path class="cls-16" d="M124.7,431.77l267-142.66a31.37,31.37,0,0,1,41.66,11.5L659.93,677.24a23.12,23.12,0,0,1-8.55,32.12L348.29,878.43a22,22,0,0,1-30.06-8.83L110.07,480A35.61,35.61,0,0,1,124.7,431.77Z"/><path class="cls-17" d="M389.57,848.1h0L355.09,866a24.1,24.1,0,0,1-32.22-10l-27.62-51.71a1,1,0,0,1,.4-1.34,1,1,0,0,1,1.34.41L324.61,855a22.12,22.12,0,0,0,29.57,9.18l34.48-17.85a1,1,0,0,1,.91,1.76Z"/><path class="cls-17" d="M288,788.63a1,1,0,0,1-1.33-.41l-4.47-8.38a1,1,0,0,1,.4-1.33h0a1,1,0,0,1,1.33.41l4.47,8.37a1,1,0,0,1-.4,1.34Z"/><path class="cls-5" d="M123.85,428.19C163,413.66,296.52,362,396,298.62a9.56,9.56,0,0,1,13.33,3.1L637.7,679.56A11,11,0,0,1,634,694.64c-42.22,25.88-216.47,131.79-284.11,159.3A8.73,8.73,0,0,1,339,850L118.36,442.82A10.35,10.35,0,0,1,123.85,428.19Z"/><path class="cls-2" d="M133.14,436.2c37.64-14,166.18-63.74,261.86-124.7a9.21,9.21,0,0,1,12.83,3L627.65,678.1a10.59,10.59,0,0,1-3.53,14.51c-40.64,24.9-208.33,126.82-273.42,153.3a8.39,8.39,0,0,1-10.53-3.79L127.86,450.27A10,10,0,0,1,133.14,436.2Z"/><path class="cls-18" d="M408.79,346.39c1.94-1,2.8-3.05,1.92-4.48s-3.21-1.76-5.16-.74L179.77,459.51c-2,1-1.89,2.57.13,3.44l2.25,1a9.41,9.41,0,0,0,7.2-.29Z"/><path class="cls-19" d="M187.76,474.47c-1.95,1-1.89,2.57.13,3.44l2.25,1a9.41,9.41,0,0,0,7.2-.3L416.78,361.35c1.94-1,2.8-3.05,1.92-4.48s-3.21-1.76-5.16-.74Z"/><path class="cls-17" d="M298.54,590l-.09,0-29.68,16.74c-4.27,2.41-9.47,1.51-12.09-2.11L239.8,581.41a6.29,6.29,0,0,1-1.07-4.84,7.57,7.57,0,0,1,3.26-4.89h0c2.4-1.6,5.66-3.87,9.24-6.37,7.82-5.43,16.67-11.6,22.1-14.82l.12-.07a9.58,9.58,0,0,1,11.58,1.1c4.83,4.81,10.9,15.65,17.22,27.29C304.32,582.63,302.65,587.63,298.54,590Zm-55-16a4.83,4.83,0,0,0-2.08,3.07,3.58,3.58,0,0,0,.59,2.72l16.88,23.27c1.79,2.47,5.43,3,8.48,1.32l29.68-16.74.06,0c2.82-1.63,4-5,2.66-7.46-6.22-11.45-12.18-22.11-16.74-26.65a6.9,6.9,0,0,0-8.32-.61c-5.34,3.17-14.54,9.57-21.93,14.71-3.6,2.51-6.87,4.79-9.28,6.4Z"/><path class="cls-20" d="M248.15,574.65c5.95-4,18.64-13.14,25-16.9a6.6,6.6,0,0,1,8,.65c3.86,3.85,8.94,13,13.56,21.55,1.39,2.55.24,5.89-2.6,7.49l-23.72,13.37a6.29,6.29,0,0,1-8.22-1.36l-13.48-18.6A4.42,4.42,0,0,1,248.15,574.65Z"/><path class="cls-21" d="M310.68,548.79a2.84,2.84,0,0,0-.69,4.75l6.76,6.83a5.49,5.49,0,0,0,6.28.84l146.55-84.49A3.91,3.91,0,0,0,471,471.3l-2.44-4a4.24,4.24,0,0,0-5.59-1.5Z"/><path class="cls-22" d="M251.64,577.81h0a5.23,5.23,0,0,1,7.23-1.9L270.71,583a1.68,1.68,0,0,0,2.53-1.61l-4.09-40.48a1.86,1.86,0,0,1,3.48-1.08c5.53,9.92,13.69,30.12,7,54.82,0,0-10.6,1.63-26.4-9.66A5.5,5.5,0,0,1,251.64,577.81Z"/><path class="cls-17" d="M263.09,522.18l-.08.05L233.32,539c-4.27,2.41-9.47,1.5-12.09-2.11l-16.88-23.27a6.29,6.29,0,0,1-1.07-4.84,7.57,7.57,0,0,1,3.26-4.89h0c2.4-1.6,5.66-3.87,9.25-6.37,7.81-5.43,16.66-11.6,22.09-14.82l.12-.07a9.58,9.58,0,0,1,11.58,1.1c4.83,4.81,10.9,15.65,17.22,27.29C268.87,514.81,267.21,519.81,263.09,522.18Zm-55-16a4.76,4.76,0,0,0-2.08,3.07,3.53,3.53,0,0,0,.58,2.72l16.88,23.27c1.79,2.47,5.43,3,8.48,1.32l29.68-16.74.06,0c2.82-1.63,4-5,2.66-7.46-6.22-11.45-12.18-22.11-16.74-26.65a6.9,6.9,0,0,0-8.32-.61c-5.34,3.17-14.54,9.57-21.93,14.71-3.6,2.51-6.87,4.79-9.27,6.4Z"/><path class="cls-23" d="M212.7,506.83c6-4,18.64-13.14,25-16.9a6.6,6.6,0,0,1,8,.65c3.86,3.85,8.94,13,13.56,21.55,1.39,2.55.24,5.89-2.6,7.49L232.93,533a6.29,6.29,0,0,1-8.22-1.36L211.23,513A4.42,4.42,0,0,1,212.7,506.83Z"/><path class="cls-24" d="M275.24,481a2.84,2.84,0,0,0-.7,4.75l6.76,6.83a5.49,5.49,0,0,0,6.28.84L434.13,408.9a3.91,3.91,0,0,0,1.39-5.42l-2.44-4a4.25,4.25,0,0,0-5.59-1.51Z"/><path class="cls-25" d="M216.19,510h0a5.23,5.23,0,0,1,7.23-1.9l11.84,7.08a1.68,1.68,0,0,0,2.54-1.61l-4.1-40.48a1.86,1.86,0,0,1,3.48-1.08c5.53,9.92,13.69,30.12,7,54.82,0,0-10.6,1.63-26.4-9.66A5.5,5.5,0,0,1,216.19,510Z"/><path class="cls-17" d="M335,653.27l-.08.05-29.68,16.73c-4.28,2.41-9.48,1.51-12.09-2.1l-16.88-23.27a6.33,6.33,0,0,1-1.08-4.85,7.57,7.57,0,0,1,3.27-4.88h0c2.39-1.61,5.65-3.88,9.24-6.37,7.81-5.44,16.67-11.6,22.1-14.83l.12-.07a9.6,9.6,0,0,1,11.58,1.1c4.82,4.81,10.89,15.66,17.21,27.29C340.8,645.89,339.13,650.89,335,653.27Zm-55-16a4.74,4.74,0,0,0-2.08,3.06,3.52,3.52,0,0,0,.59,2.73l16.88,23.27c1.78,2.46,5.43,3,8.47,1.31l29.69-16.74.05,0c2.83-1.63,4-5,2.66-7.46-6.22-11.45-12.18-22.1-16.74-26.65a6.91,6.91,0,0,0-8.31-.6c-5.35,3.17-14.54,9.57-21.93,14.71-3.6,2.51-6.88,4.78-9.28,6.4Z"/><path class="cls-26" d="M284.62,637.91c6-4,18.65-13.13,25-16.9a6.61,6.61,0,0,1,8,.65c3.87,3.85,8.94,13,13.57,21.56,1.38,2.55.23,5.88-2.6,7.48l-23.72,13.38c-2.92,1.64-6.47,1-8.22-1.37l-13.49-18.59A4.44,4.44,0,0,1,284.62,637.91Z"/><path class="cls-27" d="M347.16,612.05a2.85,2.85,0,0,0-.69,4.76l6.76,6.82a5.47,5.47,0,0,0,6.28.85L506.05,540a3.88,3.88,0,0,0,1.39-5.41l-2.44-4a4.24,4.24,0,0,0-5.58-1.5Z"/><path class="cls-28" d="M288.12,641.07h0a5.23,5.23,0,0,1,7.23-1.9l11.84,7.08a1.68,1.68,0,0,0,2.53-1.61l-4.09-40.47a1.86,1.86,0,0,1,3.48-1.09c5.52,9.92,13.69,30.12,7,54.83,0,0-10.6,1.62-26.4-9.67A5.49,5.49,0,0,1,288.12,641.07Z"/><path class="cls-29" d="M367.27,715.61l-.07,0-29.69,16.73c-4.27,2.41-9.47,1.51-12.09-2.1L308.54,707a6.31,6.31,0,0,1-1.07-4.84,7.52,7.52,0,0,1,3.26-4.89h0c2.39-1.6,5.65-3.87,9.24-6.37,7.42-5.17,16.67-11.6,22.1-14.82,3.88-2.26,8.75-1.92,11.7,1,4.83,4.8,10.9,15.65,17.22,27.28C373.06,708.23,371.39,713.24,367.27,715.61Zm-55-16a4.81,4.81,0,0,0-2.08,3.06,3.61,3.61,0,0,0,.59,2.73l16.88,23.27c1.79,2.46,5.43,3,8.48,1.31l29.68-16.73c2.75-1.66,4.08-5,2.72-7.5-6.22-11.45-12.18-22.1-16.74-26.65-2-2-5.57-2.24-8.32-.6-5.35,3.17-14.55,9.57-21.94,14.72-3.6,2.5-6.87,4.78-9.27,6.39Z"/><path class="cls-30" d="M316.89,700.26c5.95-4,18.64-13.14,25-16.91a6.6,6.6,0,0,1,8,.66c3.86,3.85,8.94,13,13.56,21.55,1.39,2.55.24,5.88-2.6,7.48l-23.72,13.38a6.3,6.3,0,0,1-8.22-1.37l-13.48-18.59A4.41,4.41,0,0,1,316.89,700.26Z"/><path class="cls-31" d="M379.43,674.39a2.85,2.85,0,0,0-.7,4.76l6.76,6.82a5.48,5.48,0,0,0,6.28.85l146.55-84.49a3.91,3.91,0,0,0,1.39-5.42l-2.44-4a4.24,4.24,0,0,0-5.59-1.51Z"/><path class="cls-32" d="M320.38,703.41h0a5.24,5.24,0,0,1,7.23-1.9l11.84,7.08A1.68,1.68,0,0,0,342,707l-4.1-40.47a1.86,1.86,0,0,1,3.48-1.08c5.53,9.91,13.69,30.11,7,54.82,0,0-10.6,1.62-26.4-9.67A5.5,5.5,0,0,1,320.38,703.41Z"/><path class="cls-17" d="M400,780.19l-.08,0L370.28,797c-4.28,2.41-9.48,1.51-12.09-2.1L341.31,771.6a6.36,6.36,0,0,1-1.08-4.84,7.57,7.57,0,0,1,3.27-4.89h0c2.39-1.61,5.65-3.87,9.24-6.37,7.81-5.44,16.67-11.6,22.1-14.82,4-2.26,8.75-1.92,11.7,1,4.82,4.8,10.9,15.65,17.22,27.29C405.83,772.81,404.16,777.82,400,780.19Zm-55-16a4.77,4.77,0,0,0-2.08,3.06,3.61,3.61,0,0,0,.59,2.73l16.88,23.27c1.79,2.46,5.43,3,8.48,1.31l29.68-16.74.06,0c2.82-1.63,4-5,2.65-7.46-6.21-11.45-12.17-22.1-16.73-26.65-2-2-5.56-2.21-8.32-.6-5.35,3.17-14.54,9.57-21.93,14.71-3.6,2.51-6.88,4.79-9.28,6.4Z"/><path class="cls-33" d="M349.65,764.84c6-4,18.65-13.14,25-16.91a6.58,6.58,0,0,1,8,.66c3.87,3.85,8.95,13,13.57,21.55,1.39,2.55.23,5.89-2.6,7.48L369.89,791a6.3,6.3,0,0,1-8.22-1.37L348.18,771A4.43,4.43,0,0,1,349.65,764.84Z"/><path class="cls-34" d="M412.19,739a2.85,2.85,0,0,0-.69,4.76l6.76,6.83a5.49,5.49,0,0,0,6.28.84l146.54-84.49a3.91,3.91,0,0,0,1.4-5.42l-2.45-4a4.23,4.23,0,0,0-5.58-1.51Z"/><path class="cls-35" d="M353.15,768h0a5.24,5.24,0,0,1,7.23-1.91l11.84,7.08a1.67,1.67,0,0,0,2.53-1.61l-4.09-40.47a1.86,1.86,0,0,1,3.48-1.08c5.52,9.91,13.69,30.11,7,54.82,0,0-10.6,1.62-26.4-9.67A5.48,5.48,0,0,1,353.15,768Z"/><path class="cls-36" d="M246.58,298.81c-13.23-1.56-21.54,3.05-26.52,7.95a13.36,13.36,0,0,0-1.75,16.85L235.71,350l31.73-13.5S272.53,301.86,246.58,298.81Zm-1.34,29.54a8.57,8.57,0,1,1,3.52-11.59A8.56,8.56,0,0,1,245.24,328.35Z"/><path class="cls-37" d="M232.33,337.69a1.68,1.68,0,0,1-1.65-.75l-2.77-4.21a1.7,1.7,0,1,1,2.84-1.87l2.77,4.21a1.7,1.7,0,0,1-.49,2.35A1.68,1.68,0,0,1,232.33,337.69Zm-5.42-8.25a1.69,1.69,0,0,1-1.66-.75l-2.11-3.2a13.61,13.61,0,0,1,1.79-17.15,26.55,26.55,0,0,1,11.19-6.59,1.71,1.71,0,1,1,1,3.27,23.15,23.15,0,0,0-9.77,5.74A10.19,10.19,0,0,0,226,323.62l2.1,3.2a1.69,1.69,0,0,1-.49,2.35A1.64,1.64,0,0,1,226.91,329.44Z"/><path class="cls-38" d="M204,390.09l-7.47-14a9.67,9.67,0,0,1,4.27-13.23l98.1-48.17A9.41,9.41,0,0,1,311,318.25l8,13Z"/><path class="cls-39" d="M226.59,356a1,1,0,0,1-.92-1.75l4.14-2.21a1,1,0,0,1,1.34.41,1,1,0,0,1-.41,1.34L226.6,356Z"/><path class="cls-40" d="M206.66,383.87a1.68,1.68,0,0,1-1.73-.88l-3-5.65A9.86,9.86,0,0,1,206,364l15.24-8.13a1.7,1.7,0,0,1,1.6,3L207.56,367a6.45,6.45,0,0,0-2.65,8.73l3,5.65a1.7,1.7,0,0,1-.7,2.3A1.46,1.46,0,0,1,206.66,383.87Z"/><path class="cls-41" d="M171,401.11l168.46-90a14.11,14.11,0,0,1,17.79,3.77l.58.75A12.12,12.12,0,0,1,354,333.77L181.18,426.1a7.89,7.89,0,0,1-10.84-3.57l-3.76-7.94A10.29,10.29,0,0,1,171,401.11Z"/><path class="cls-7" d="M893.05,144.53s.46-.75,1.33-2.12a1.67,1.67,0,0,1,2.31-.51,1.64,1.64,0,0,1,.69.9l2.43-.62a1.67,1.67,0,1,1,.79,3.24c-2.53.62-4.31,1.17-5.17,1.43l-.5.15-4,1.08Zm6.06-9.11c1.6-2.26,3.28-4.54,5-6.79a1.67,1.67,0,0,1,2.65,2c-1.69,2.21-3.35,4.46-4.92,6.69a1.67,1.67,0,0,1-2.33.39,1.72,1.72,0,0,1-.34-.32A1.66,1.66,0,0,1,899.11,135.42Zm7.65,7a1.67,1.67,0,0,1,1.41-1.89,82.21,82.21,0,0,1,8.49-.82,1.67,1.67,0,1,1,.15,3.34,80.9,80.9,0,0,0-8.15.78,1.68,1.68,0,0,1-1.9-1.41Zm16.66-1a1.68,1.68,0,0,1,1.81-1.53,55.47,55.47,0,0,1,8.5,1.34,1.67,1.67,0,0,1-.78,3.25,52.44,52.44,0,0,0-8-1.26,1.69,1.69,0,0,1-1.53-1.8ZM909.34,122c1.8-2.18,3.64-4.34,5.47-6.4a1.68,1.68,0,0,1,2.36-.14,1.66,1.66,0,0,1,.14,2.36c-1.8,2-3.62,4.15-5.39,6.3a1.67,1.67,0,0,1-2.35.23,1.88,1.88,0,0,1-.24-.25A1.66,1.66,0,0,1,909.34,122Zm30.37,22.8a1.66,1.66,0,0,1,2.21-.82,39.56,39.56,0,0,1,5.43,3c.67.44,1.33.86,2,1.25a1.67,1.67,0,0,1-1.73,2.86c-.69-.42-1.38-.86-2.09-1.32a35.62,35.62,0,0,0-5-2.74,1.65,1.65,0,0,1-.62-.48A1.68,1.68,0,0,1,939.71,144.84Zm22.75,23.66a1.65,1.65,0,0,1,1.77-.38,12.31,12.31,0,0,1,5-.34,1.67,1.67,0,0,1-.36,3.32,7.41,7.41,0,0,0-5.38,1.05l-2.13-2.56Zm-8.11-15.66a1.66,1.66,0,0,1,2.17-.93,30,30,0,0,0,7.62,2,1.67,1.67,0,0,1-.4,3.32,33.56,33.56,0,0,1-8.46-2.24,1.69,1.69,0,0,1-.69-.51A1.65,1.65,0,0,1,954.35,152.84Zm-33.82-43.39c2-2,4-4,6-6a1.67,1.67,0,0,1,2.32,2.41c-2,1.89-3.94,3.86-5.86,5.86a1.68,1.68,0,0,1-2.37,0l-.15-.17A1.66,1.66,0,0,1,920.53,109.45Zm47.78,53.08c2.24-2.32,4.16-4.36,5.71-6.06a1.67,1.67,0,0,1,2.47,2.26c-1.58,1.72-3.52,3.78-5.78,6.12a1.66,1.66,0,0,1-2.36.05l-.15-.16A1.67,1.67,0,0,1,968.31,162.53Zm7.29,8.26a1.68,1.68,0,0,1,2-1.24c2.38.57,5,1.17,8,1.64a1.67,1.67,0,1,1-.51,3.31c-3.16-.5-5.86-1.11-8.31-1.7a1.67,1.67,0,0,1-1.24-2Zm-5-15.33a1.67,1.67,0,0,1,1.16-2.06,21,21,0,0,0,5.66-2.66,14.35,14.35,0,0,1,1.27-.75l.47-.2a1.63,1.63,0,0,1,2.07,1.07,1.71,1.71,0,0,1-1.09,2.14c-.24.12-.55.32-.94.57a24.28,24.28,0,0,1-6.54,3.05,1.67,1.67,0,0,1-1.76-.57A1.57,1.57,0,0,1,970.6,155.46ZM932.7,97.79c1.9-1.66,3.83-3.28,5.74-4.8l.75-.6a1.67,1.67,0,0,1,2.34.27h0a1.67,1.67,0,0,1-.27,2.35l-.74.58c-1.87,1.5-3.76,3.09-5.62,4.71a1.68,1.68,0,0,1-2.36-.15l0-.06A1.66,1.66,0,0,1,932.7,97.79ZM992,173.6a1.67,1.67,0,0,1,1.74-1.6,79.81,79.81,0,0,0,8.17-.07,1.67,1.67,0,1,1,.2,3.33,80.83,80.83,0,0,1-8.51.08,1.67,1.67,0,0,1-1.6-1.74Zm16.66-.63a1.67,1.67,0,0,1,1.41-1.9l1.75-.27a57.46,57.46,0,0,0,6.2-1.39,1.67,1.67,0,1,1,.92,3.21,59.25,59.25,0,0,1-6.58,1.48l-1.8.28a1.67,1.67,0,0,1-1.55-.61A1.58,1.58,0,0,1,1008.7,173ZM945.55,89.66a1.67,1.67,0,0,1,.4-2.32c2.34-1.65,4.72-3.21,7.07-4.66a1.67,1.67,0,0,1,1.75,2.85c-2.29,1.41-4.61,2.93-6.89,4.54a1.68,1.68,0,0,1-2.27-.32Zm79.28,79.16a1.67,1.67,0,0,1,.83-2.21,53.21,53.21,0,0,0,7.08-3.92,1.66,1.66,0,0,1,2.31.48,1.68,1.68,0,0,1-.48,2.32,58.08,58.08,0,0,1-7.52,4.16,1.68,1.68,0,0,1-2-.48A1.38,1.38,0,0,1,1024.83,168.82ZM959.67,80.75a1.66,1.66,0,0,1,.71-2.25c2.54-1.33,5.11-2.55,7.66-3.64a1.67,1.67,0,0,1,1.31,3.07c-2.46,1.06-5,2.24-7.42,3.53a1.67,1.67,0,0,1-2.08-.44A1.27,1.27,0,0,1,959.67,80.75Zm79.5,77a59.89,59.89,0,0,0,5.68-5.8,1.67,1.67,0,1,1,2.54,2.17,63.2,63.2,0,0,1-6,6.13,1.67,1.67,0,0,1-2.36-.14l-.06-.07A1.67,1.67,0,0,1,1039.17,157.76ZM974.92,74A1.67,1.67,0,0,1,976,71.86c2.72-.9,5.48-1.66,8.2-2.28a1.67,1.67,0,0,1,.74,3.26c-2.62.6-5.27,1.33-7.89,2.19a1.66,1.66,0,0,1-1.83-.54A1.63,1.63,0,0,1,974.92,74Zm74.76,71.46a35.3,35.3,0,0,0,3.5-6.69l.53-3.66a1.67,1.67,0,0,1,3.31.48l-.52,3.58h0c-.36,2.39-3.93,8-4,8.1a1.68,1.68,0,0,1-2.31.51,1.62,1.62,0,0,1-.41-.37A1.67,1.67,0,0,1,1049.68,145.43ZM991.11,70a1.68,1.68,0,0,1,1.46-1.86,78.77,78.77,0,0,1,8.51-.56,1.67,1.67,0,1,1,0,3.34,74.51,74.51,0,0,0-8.15.54,1.67,1.67,0,0,1-1.5-.62A1.64,1.64,0,0,1,991.11,70Zm16.66-.55a1.67,1.67,0,0,1,1.83-1.5,81.24,81.24,0,0,1,8.42,1.3,1.67,1.67,0,1,1-.69,3.27,77,77,0,0,0-8.06-1.25,1.66,1.66,0,0,1-1.14-.61A1.71,1.71,0,0,1,1007.77,69.44Zm47.14,57.38,1.2-8.27a1.67,1.67,0,0,1,3.31.48l-1.2,8.27a1.67,1.67,0,0,1-3.31-.48Zm-30.76-54.31a1.66,1.66,0,0,1,2.1-1.07c2.64.85,5.32,1.86,8,3a1.66,1.66,0,0,1,.88,2.19,1.68,1.68,0,0,1-2.2.88c-2.54-1.1-5.12-2.08-7.65-2.89a1.67,1.67,0,0,1-1.08-2.11Zm33.16,37.77,1.2-8.27a1.67,1.67,0,0,1,3.31.48l-1.2,8.27a1.67,1.67,0,0,1-3,.8A1.64,1.64,0,0,1,1057.31,110.28Zm-17.74-31.45a1.68,1.68,0,0,1,2.27-.67c2.42,1.31,4.87,2.77,7.28,4.33a1.67,1.67,0,0,1-1.82,2.81c-2.34-1.52-4.71-2.93-7-4.21a1.41,1.41,0,0,1-.51-.42A1.67,1.67,0,0,1,1039.57,78.83Zm14.14,8.85a1.66,1.66,0,0,1,2.34-.33c2.14,1.62,4.3,3.35,6.43,5.16l.7.6-.16,1.12a1.68,1.68,0,0,1-1.9,1.41,1.66,1.66,0,0,1-1.29-1C1057.91,93,1056,91.47,1054,90a1.67,1.67,0,0,1-.33-2.34Z"/><path class="cls-42" d="M1055.47,120.36s-17.08,32.84-42.54,22.9S964.25,117,952.44,122.08c0,0,45-56.71,103.48-14.77Z"/><path class="cls-7" d="M1122.58,160s-4.42,36.08-15.9,40.56c-10.91,4.26-92.87-3.11-100.84-3.84a.69.69,0,0,1-.62-.7h0a9.3,9.3,0,0,1,3.92-7.47c11.72-8.33,46.93-32.92,60-36.93C1084.84,146.8,1122.58,160,1122.58,160Z"/><path class="cls-5" d="M1035.3,194.47a.82.82,0,0,0,.6.31c.45,0,45.4,3.3,64.81,3.95a8.74,8.74,0,0,0,8.15-4.92A129.32,129.32,0,0,0,1118,169a.84.84,0,0,0-1.63-.39,128.11,128.11,0,0,1-9,24.44,7.07,7.07,0,0,1-6.6,4c-19.37-.65-64.29-3.91-64.74-3.94a.84.84,0,0,0-.9.77A.89.89,0,0,0,1035.3,194.47Z"/><path class="cls-7" d="M1123.67,75.61s-3.48-36.18-14.84-40.95c-10.8-4.55-92.92.7-100.91,1.23a.67.67,0,0,0-.63.68h0a9.31,9.31,0,0,0,3.72,7.57c11.5,8.63,46.06,34.12,59,38.47C1085.6,87.87,1123.67,75.61,1123.67,75.61Z"/><path class="cls-5" d="M1037.3,40a.85.85,0,0,0,.69.31c.46,0,45.45-2.12,64.83-2.26a7,7,0,0,1,6.49,4.14,128.62,128.62,0,0,1,8.36,24.67.83.83,0,1,0,1.63-.35,127.48,127.48,0,0,0-8.46-25,8.72,8.72,0,0,0-8-5.13c-19.42.14-64.44,2.24-64.89,2.26a.84.84,0,0,0-.8.87A.91.91,0,0,0,1037.3,40Z"/><path class="cls-43" d="M1244.65,161.15a187.47,187.47,0,0,1-58,8.58c-67.23-.67-116.52-12.8-130.44-16.62a7.12,7.12,0,0,1-5-5.26,125.62,125.62,0,0,1,.31-60,10.34,10.34,0,0,1,7.66-7.55c16.32-3.89,64.5-13.78,128.82-12.76a187.68,187.68,0,0,1,57.36,10C1254.23,111,1248.78,143.12,1244.65,161.15Z"/><path class="cls-44" d="M1245.35,77.53c36.76,12.44,60.86,32.94,68.58,40.18a3.5,3.5,0,0,1-.07,5.18c-7.88,7-32.36,26.77-69.21,38.26C1248.78,143.12,1254.23,111,1245.35,77.53Z"/><path class="cls-2" d="M1192.19,84.94c-17.42-.22-31.73,14.74-32,33.43s13.68,34,31.09,34.24,31.72-14.74,32-33.42S1209.6,85.17,1192.19,84.94Z"/><path class="cls-45" d="M1193,90.88c-13.87-.18-25.28,11.75-25.47,26.64s10.9,27.11,24.77,27.28,25.28-11.74,25.47-26.63S1206.87,91.06,1193,90.88Z"/><path class="cls-5" d="M1197.07,136.79a.87.87,0,0,0,.89.28c8.56-2.51,14.63-10.75,14.75-20a22,22,0,0,0-1-6.86.83.83,0,0,0-1.59.5A20.2,20.2,0,0,1,1211,117c-.11,8.57-5.68,16.17-13.55,18.46a.84.84,0,0,0-.57,1A.8.8,0,0,0,1197.07,136.79Z"/><path class="cls-2" d="M1128.68,95.6c-11.5-.14-21,9.74-21.12,22.09s9,22.47,20.54,22.62,21-9.74,21.12-22.08S1140.18,95.75,1128.68,95.6Z"/><path class="cls-46" d="M1129.21,99.53c-9.17-.12-16.7,7.76-16.83,17.6s7.2,17.9,16.37,18,16.7-7.76,16.83-17.59S1138.38,99.65,1129.21,99.53Z"/><path class="cls-5" d="M1131.68,130a.83.83,0,0,0,.89.28,14.2,14.2,0,0,0,10-13.51,14.69,14.69,0,0,0-.67-4.62.85.85,0,0,0-1-.55.83.83,0,0,0-.54,1.05,13.17,13.17,0,0,1,.59,4.1,12.53,12.53,0,0,1-8.75,11.93.83.83,0,0,0-.57,1A1.13,1.13,0,0,0,1131.68,130Z"/><path class="cls-7" d="M870.59,143.27l-11,2.68a1.91,1.91,0,1,1-.91-3.71l.13,0,10.68-2.66.14,0a1.93,1.93,0,1,1,.93,3.75Z"/><path class="cls-7" d="M848.52,147.88l-11.2,1.21a1.87,1.87,0,1,1-.4-3.72H837l11-1.22.12,0a1.89,1.89,0,0,1,.42,3.76Z"/><path class="cls-7" d="M826.08,149.63l-11.24-.08a1.83,1.83,0,0,1,0-3.66H815l11,0h.1a1.85,1.85,0,0,1,0,3.7Z"/><path class="cls-7" d="M803.63,148.89l-11.17-1.18a1.79,1.79,0,0,1,.38-3.56h.07l11,1.12H804a1.81,1.81,0,0,1-.36,3.6Z"/><path class="cls-7" d="M781.36,146.06l-11-2.09a1.75,1.75,0,0,1,.65-3.44h.06l10.9,2H782a1.77,1.77,0,0,1-.64,3.48Z"/><path class="cls-7" d="M759.41,141.48l-10.83-2.85a1.71,1.71,0,1,1,.87-3.3h0l10.74,2.78h0a1.73,1.73,0,0,1-.86,3.35Z"/><path class="cls-7" d="M737.84,135.45,727.2,132a1.67,1.67,0,1,1,1-3.17h0l10.57,3.42h0a1.69,1.69,0,1,1-1,3.21Z"/><path class="cls-7" d="M716.66,128.21l-10.44-4a1.63,1.63,0,0,1,1.17-3l0,0,10.38,4h0a1.65,1.65,0,0,1-1.17,3.08Z"/><path class="cls-7" d="M695.87,119.93l-10.24-4.47a1.59,1.59,0,0,1,1.26-2.91l0,0,10.2,4.41h0a1.61,1.61,0,0,1-1.27,3Z"/><path class="cls-7" d="M675.47,110.78l-10.07-4.87a1.55,1.55,0,0,1,1.35-2.78h0l10,4.81h0a1.57,1.57,0,0,1-1.36,2.83Z"/><path class="cls-7" d="M655.43,100.87l-9.89-5.21a1.5,1.5,0,1,1,1.4-2.66h0l9.86,5.15h0a1.53,1.53,0,1,1-1.42,2.7Z"/><path class="cls-7" d="M635.74,90.29,626,84.77a1.46,1.46,0,1,1,1.45-2.54h0l9.71,5.46h0a1.48,1.48,0,1,1-1.46,2.58Z"/><path class="cls-7" d="M616.37,79.12l-9.57-5.78a1.44,1.44,0,0,1,1.49-2.47h0l9.54,5.75h0a1.45,1.45,0,1,1-1.5,2.48Z"/><path class="cls-7" d="M597.31,67.44l-9.41-6A1.43,1.43,0,0,1,589.44,59h0l9.39,6h0a1.44,1.44,0,1,1-1.55,2.42Z"/><path class="cls-7" d="M578.56,55.28,569.3,49a1.42,1.42,0,1,1,1.58-2.36h0l9.24,6.22h0a1.43,1.43,0,0,1-1.59,2.37Z"/><path class="cls-7" d="M560.11,42.67,551,36.21a1.41,1.41,0,0,1,1.63-2.3h0l9.09,6.43h0a1.41,1.41,0,0,1-1.63,2.31Z"/><path class="cls-7" d="M541.85,30l-9.51-5.64-.08,0a1.39,1.39,0,0,1,1.42-2.4l9.68,5.72A1.41,1.41,0,0,1,541.93,30h0Z"/><path class="cls-7" d="M522.48,19.3l-10.15-4.39-.08,0a1.39,1.39,0,0,1,1.1-2.55l10.32,4.45a1.39,1.39,0,0,1-1.1,2.56h0Z"/><path class="cls-7" d="M501.92,11.17,491.29,8.1l-.08,0A1.37,1.37,0,0,1,492,5.44l10.8,3.1A1.38,1.38,0,0,1,502,11.2h0Z"/><path class="cls-7" d="M480.49,5.71,469.56,4h-.09a1.36,1.36,0,0,1,.42-2.69L481,3a1.37,1.37,0,0,1-.42,2.71h0Z"/><path class="cls-7" d="M458.54,3l-11.06-.3h-.08a1.35,1.35,0,1,1,.07-2.7L458.7.3A1.36,1.36,0,0,1,458.63,3h-.09Z"/><path class="cls-7" d="M436.43,3.11l-11,1.1h-.08a1.34,1.34,0,1,1-.27-2.67L436.24.42a1.35,1.35,0,1,1,.28,2.68h-.09Z"/><path class="cls-7" d="M414.5,6,403.72,8.49l-.08,0a1.33,1.33,0,0,1-.6-2.59L414,3.38a1.34,1.34,0,1,1,.61,2.6h0Z"/><path class="cls-7" d="M393.12,11.66,382.74,15.5l-.07,0a1.32,1.32,0,1,1-.92-2.47l10.53-3.91a1.32,1.32,0,0,1,.92,2.48h0Z"/><path class="cls-7" d="M372.64,20l-9.74,5.21-.09.05A1.31,1.31,0,1,1,361.58,23l9.91-5.32A1.32,1.32,0,0,1,372.73,20h0Z"/><path class="cls-7" d="M353.54,31.11l-9,6.5-.07,0a1.3,1.3,0,0,1-1.52-2.1l9.08-6.6a1.3,1.3,0,1,1,1.53,2.1h0Z"/><path class="cls-7" d="M336.05,44.66,328,52.2l-.05,0a1.29,1.29,0,1,1-1.76-1.88l8.21-7.65a1.29,1.29,0,0,1,1.76,1.89h0Z"/><path class="cls-7" d="M320.29,60.2l-7.19,8.43-.05.05A1.27,1.27,0,0,1,311.11,67l7.28-8.55a1.28,1.28,0,0,1,1.95,1.66h0Z"/><path class="cls-7" d="M306.4,77.45l-6.17,9.19,0,.07a1.28,1.28,0,0,1-1.76.34,1.26,1.26,0,0,1-.34-1.75L304.33,76a1.27,1.27,0,1,1,2.11,1.41h0Z"/><path class="cls-7" d="M294.62,96.19l-5,9.87,0,.08a1.26,1.26,0,1,1-2.24-1.14l5.07-10a1.26,1.26,0,0,1,2.24,1.14h0Z"/><path class="cls-7" d="M285.26,116.24l-3.62,10.45,0,.08a1.24,1.24,0,1,1-2.35-.81l3.68-10.62a1.24,1.24,0,0,1,1.58-.77,1.25,1.25,0,0,1,.77,1.59h0Z"/><path class="cls-7" d="M278.79,137.38l-2,10.87,0,.1a1.23,1.23,0,0,1-2.42-.45l2-11.06a1.24,1.24,0,1,1,2.44.44h0Z"/><path class="cls-7" d="M275.73,159.24l-.06,11v.11a1.22,1.22,0,1,1-2.43,0l.06-11.26a1.22,1.22,0,1,1,2.44,0h0Z"/><path class="cls-7" d="M276.65,181.25l2.06,10.83,0,.12a1.21,1.21,0,0,1-2.38.45l-2.12-11.06a1.21,1.21,0,0,1,2.38-.46h0Z"/><path class="cls-7" d="M281.87,202.64l4.22,10.18.05.12a1.2,1.2,0,1,1-2.21.91l-4.33-10.4a1.2,1.2,0,0,1,2.22-.93h0Z"/><path class="cls-7" d="M291.46,222.38a56,56,0,0,0,6.94,8.41,1.19,1.19,0,1,1-1.67,1.69,58.48,58.48,0,0,1-7.25-8.76,1.2,1.2,0,0,1,2-1.34Z"/><path class="cls-7" d="M306.91,237.57a46.87,46.87,0,0,0,9.8,4.67,1.17,1.17,0,0,1,.74,1.49,1.19,1.19,0,0,1-1.5.74,49.56,49.56,0,0,1-10.29-4.9,1.18,1.18,0,1,1,1.25-2Z"/><path class="cls-7" d="M327.33,244.55a52.06,52.06,0,0,0,10.88-.05,1.16,1.16,0,1,1,.26,2.31,54.1,54.1,0,0,1-11.38.07,1.17,1.17,0,0,1,.24-2.33Z"/><path class="cls-7" d="M348.89,242.25a60.52,60.52,0,0,0,10.09-4.2,1.15,1.15,0,1,1,1.07,2,61.9,61.9,0,0,1-10.47,4.37,1.16,1.16,0,1,1-.69-2.21Z"/><path class="cls-7" d="M368.19,232.14a65.68,65.68,0,0,0,8.08-7.38,1.15,1.15,0,0,1,1.68,1.56,68.75,68.75,0,0,1-8.36,7.64,1.15,1.15,0,0,1-1.4-1.82Z"/><path class="cls-7" d="M383,216.16l2.78-4.74a53.41,53.41,0,0,0,2.53-4.87l0-.07a1.13,1.13,0,0,1,2,1c-.84,1.68-1.6,3.42-2.61,5l-2.87,4.89a1.13,1.13,0,0,1-1.95-1.15h0Z"/><path class="cls-7" d="M392.18,196.27a62.62,62.62,0,0,0,2.08-10.75,1.11,1.11,0,0,1,1.22-1,1.12,1.12,0,0,1,1,1.22,64,64,0,0,1-2.15,11.15,1.12,1.12,0,1,1-2.16-.62Z"/><path class="cls-7" d="M394.33,174.6a56,56,0,0,0-2-10.73,1.11,1.11,0,0,1,2.13-.62,58.05,58.05,0,0,1,2.12,11.15,1.11,1.11,0,1,1-2.22.2Z"/><path class="cls-7" d="M388.27,153.72a64.19,64.19,0,0,0-5.79-9.3,1.1,1.1,0,0,1,1.76-1.31,66.07,66.07,0,0,1,6,9.61,1.1,1.1,0,0,1-2,1Z"/><path class="cls-7" d="M375.24,136.18a77.91,77.91,0,0,0-8.38-7.11,1.1,1.1,0,0,1-.23-1.52,1.08,1.08,0,0,1,1.52-.23,80,80,0,0,1,8.62,7.3,1.09,1.09,0,0,1,0,1.54,1.1,1.1,0,0,1-1.55,0Z"/><path class="cls-7" d="M357.61,123.12a95.15,95.15,0,0,0-9.92-4.77,1.09,1.09,0,0,1-.59-1.41,1.07,1.07,0,0,1,1.4-.58,94.71,94.71,0,0,1,10.16,4.87,1.09,1.09,0,0,1-1.05,1.9Z"/><path class="cls-7" d="M337.27,114.73c-3.53-1-7.18-1.7-10.76-2.56l-.08,0a1.09,1.09,0,1,1,.51-2.12h0c3.64.89,7.31,1.6,10.92,2.64a1.07,1.07,0,1,1-.58,2.06Z"/><path class="cls-7" d="M315.58,110.39l-11-1.06h-.07a1.16,1.16,0,1,1,.22-2.3h0l11.17,1.14a1.12,1.12,0,0,1-.22,2.23Z"/><path class="cls-7" d="M293.49,109l-11.08.27h-.07a1.22,1.22,0,1,1-.06-2.43h0l11.21-.21a1.17,1.17,0,0,1,1.21,1.16,1.19,1.19,0,0,1-1.16,1.21Z"/><path class="cls-7" d="M271.36,110.11l-11,1.5h-.07a1.28,1.28,0,0,1-.34-2.53h0l11.12-1.46a1.26,1.26,0,0,1,1.4,1.08,1.24,1.24,0,0,1-1.07,1.39Z"/><path class="cls-7" d="M249.5,113.69l-10.76,2.65-.07,0a1.34,1.34,0,0,1-.64-2.6h0l10.9-2.63a1.31,1.31,0,0,1,.62,2.54Z"/><path class="cls-7" d="M228.14,119.56l-10.41,3.79-.07,0a1.4,1.4,0,1,1-1-2.63h0L227.28,117a1.37,1.37,0,0,1,.93,2.58Z"/><path class="cls-7" d="M207.55,127.7l-9.9,4.93-.08,0a1.46,1.46,0,1,1-1.3-2.62h0l10.09-5a1.42,1.42,0,0,1,1.91.65,1.44,1.44,0,0,1-.64,1.92Z"/><path class="cls-7" d="M188.07,138.15l-9.22,6.1-.07.05a1.53,1.53,0,1,1-1.69-2.54h0l9.4-6.14a1.49,1.49,0,1,1,1.64,2.49Z"/><path class="cls-7" d="M170,150.86l-8.54,7-.06.05a1.59,1.59,0,0,1-2-2.45h0l8.69-7.1a1.56,1.56,0,0,1,2,2.41Z"/><path class="cls-7" d="M153.22,165.34l-7.92,7.76,0,.05a1.65,1.65,0,0,1-2.31-2.36h0l8-7.81a1.62,1.62,0,0,1,2.25,2.32Z"/><path class="cls-7" d="M137.68,181.15l-7.35,8.31,0,0a1.71,1.71,0,0,1-2.56-2.26h0l7.47-8.35a1.68,1.68,0,0,1,2.5,2.23Z"/><path class="cls-7" d="M123.24,198l-6.82,8.75,0,0a1.77,1.77,0,1,1-2.79-2.17h0l6.93-8.79a1.73,1.73,0,0,1,2.73,2.14Z"/><path class="cls-7" d="M109.84,215.69l-6.33,9.12,0,0a1.82,1.82,0,1,1-3-2.08h0l6.43-9.16a1.8,1.8,0,0,1,3,2.05Z"/><path class="cls-7" d="M97.42,234.09l-5.86,9.44,0,0a1.88,1.88,0,1,1-3.2-2h0l6-9.49a1.85,1.85,0,0,1,3.14,2Z"/><path class="cls-7" d="M86,253.11l-5.38,9.71,0,0a1.94,1.94,0,0,1-3.4-1.88h0l5.47-9.77A1.91,1.91,0,1,1,86,253.07Z"/><path class="cls-7" d="M75.43,272.67l-4.88,10,0,0a2,2,0,1,1-3.59-1.76h0l5-10a2,2,0,0,1,3.54,1.74Z"/><path class="cls-7" d="M65.91,292.73l-4.36,10.2,0,.05a2.06,2.06,0,1,1-3.79-1.61h0l4.46-10.29a2,2,0,0,1,3.72,1.61Z"/><path class="cls-7" d="M57.46,313.25l-3.78,10.43,0,.06a2.12,2.12,0,0,1-4-1.44h0l3.88-10.53a2.08,2.08,0,0,1,3.91,1.43Z"/><path class="cls-7" d="M50.22,334.22l-3.1,10.63,0,.08a2.17,2.17,0,0,1-4.17-1.22h0l3.2-10.77a2.14,2.14,0,0,1,4.11,1.21Z"/><path class="cls-7" d="M44.41,355.58,42.15,366.4v.08a2.23,2.23,0,0,1-4.37-.9c.75-3.68,1.57-7.33,2.35-11a2.2,2.2,0,0,1,4.31.92Z"/><path class="cls-7" d="M40.34,377.3l-1.29,11,0,.11a2.21,2.21,0,0,1-4.38-.52L36,376.68a2.22,2.22,0,1,1,4.41.51h0Z"/><path class="cls-7" d="M38.29,399.29l-.18,11v.12a2.18,2.18,0,0,1-4.36-.07l.16-11.27a2.2,2.2,0,0,1,4.39.06h0Z"/><path class="cls-7" d="M38.51,421.36l1,11v.12a2.16,2.16,0,0,1-4.3.4l-1.06-11.22a2.17,2.17,0,1,1,4.32-.41h0Z"/><path class="cls-7" d="M41.17,443.24,43.42,454l0,.12a2.14,2.14,0,1,1-4.19.88l-2.33-11a2.15,2.15,0,1,1,4.21-.89h0Z"/><path class="cls-7" d="M46.3,464.67l3.48,10.47,0,.11a2.11,2.11,0,1,1-4,1.34L42.22,465.9a2.13,2.13,0,0,1,4-1.35h0Z"/><path class="cls-7" d="M53.84,485.39l4.62,10,0,.1a2.1,2.1,0,1,1-3.81,1.76L50,487.06a2.11,2.11,0,0,1,3.82-1.78h0Z"/><path class="cls-7" d="M63.61,505.18l5.64,9.5,0,.08a2.07,2.07,0,1,1-3.56,2.13L60,507.22a2.08,2.08,0,1,1,3.58-2.13h0Z"/><path class="cls-7" d="M75.34,523.89l6.52,8.93.06.08a2.05,2.05,0,1,1-3.32,2.42L72,526.25a2.06,2.06,0,0,1,.44-2.88,2.08,2.08,0,0,1,2.89.44h0Z"/><path class="cls-7" d="M88.77,541.47,96,549.83l0,.06A2,2,0,0,1,93,552.55l-7.38-8.46a2,2,0,0,1,3.08-2.69h0Z"/><path class="cls-7" d="M103.59,557.91l7.86,7.8,0,0a2,2,0,0,1-2.83,2.85l-8-7.88a2,2,0,1,1,2.84-2.87h0Z"/><path class="cls-7" d="M119.57,573.25l8.35,7.28,0,0a2,2,0,0,1-2.61,3l-8.46-7.35a2,2,0,1,1,2.62-3h0Z"/><path class="cls-7" d="M136.5,587.57l8.76,6.8,0,0a2,2,0,1,1-2.4,3.1L134,590.66a2,2,0,1,1,2.41-3.12h0Z"/><path class="cls-7" d="M154.2,601l9.11,6.37,0,0a1.94,1.94,0,0,1-2.22,3.19l-9.19-6.4a2,2,0,1,1,2.23-3.21h0Z"/><path class="cls-7" d="M172.55,613.51l9.31,6.15a1.92,1.92,0,1,1-2.11,3.21l-9.33-6.14a1.93,1.93,0,0,1,2.12-3.22Z"/><path class="cls-7" d="M191.18,625.78l9.34,6.1a1.9,1.9,0,0,1-2.08,3.18L189.09,629a1.91,1.91,0,1,1,2.09-3.2Z"/><path class="cls-7" d="M209.86,638l9.33,6.11a1.87,1.87,0,0,1-2.05,3.14l-9.35-6.08a1.89,1.89,0,0,1,2.06-3.17Z"/><path class="cls-7" d="M228.51,650.2l9.3,6.16a1.86,1.86,0,1,1-2.06,3.09l-9.29-6.13a1.86,1.86,0,0,1,2-3.12Z"/><path class="cls-7" d="M247.07,662.57l9.23,6.26a1.83,1.83,0,0,1-2.06,3h0L245,665.63h0a1.84,1.84,0,0,1,2.07-3Z"/><path class="cls-7" d="M265.49,675.18l9.13,6.43a1.81,1.81,0,0,1-2.09,3h0l-9.11-6.39h0a1.82,1.82,0,0,1,2.09-3Z"/><path class="cls-7" d="M283.67,688.13l9,6.64a1.79,1.79,0,0,1-2.13,2.87h0l-9-6.59h0a1.8,1.8,0,0,1,2.14-2.9Z"/><path class="cls-7" d="M301.54,701.53l8.8,6.89a1.77,1.77,0,1,1-2.18,2.78l0,0-8.77-6.84h0a1.78,1.78,0,1,1,2.19-2.81Z"/><path class="cls-7" d="M319,715.42l8.62,7.08a1.74,1.74,0,0,1-2.21,2.7v0l-8.61-7h0a1.76,1.76,0,1,1,2.22-2.72Z"/><path class="cls-7" d="M336.2,729.71l8.43,7.35a1.72,1.72,0,1,1-2.26,2.59h0l-8.4-7.29,0,0a1.73,1.73,0,0,1,2.27-2.62Z"/><path class="cls-7" d="M352.92,744.56l8.14,7.67a1.7,1.7,0,1,1-2.33,2.48l0,0-8.1-7.6,0,0a1.71,1.71,0,1,1,2.34-2.49Z"/><path class="cls-7" d="M369,760.1l7.75,8.07a1.68,1.68,0,1,1-2.42,2.33l0,0-7.7-8,0,0a1.7,1.7,0,0,1,.05-2.39,1.68,1.68,0,0,1,2.38.05Z"/><path class="cls-7" d="M384.3,776.48l7.25,8.54a1.65,1.65,0,0,1-2.52,2.14l0,0-7.19-8.44,0,0a1.67,1.67,0,0,1,2.54-2.16Z"/><path class="cls-7" d="M398.5,793.82l6.59,9.08a1.63,1.63,0,0,1-2.64,1.92l0-.06-6.53-9,0,0a1.64,1.64,0,0,1,.36-2.3,1.66,1.66,0,0,1,2.3.36Z"/><path class="cls-7" d="M411.29,812.25l5.77,9.63a1.61,1.61,0,0,1-2.77,1.66l0-.07-5.7-9.49,0-.06a1.62,1.62,0,1,1,2.78-1.67Z"/><path class="cls-7" d="M422.33,831.8,427,842a1.57,1.57,0,0,1-2.85,1.33l0-.08-4.69-10,0-.08a1.6,1.6,0,0,1,2.9-1.36Z"/><path class="cls-7" d="M431.16,852.44l3.49,10.68a1.51,1.51,0,0,1-2.86.94l0-.09-3.49-10.48,0-.09a1.54,1.54,0,0,1,2.92-1Z"/><path class="cls-7" d="M437.47,874l2.12,11a1.45,1.45,0,0,1-2.84.56l0-.09-2.14-10.85,0-.09a1.46,1.46,0,0,1,1.16-1.73,1.48,1.48,0,0,1,1.74,1.16Z"/><path class="cls-7" d="M441,896.19l.69,11.22a1.39,1.39,0,0,1-2.77.17v-.08l-.74-11v-.09a1.42,1.42,0,1,1,2.83-.19Z"/><path class="cls-7" d="M441.61,918.65l-.82,11.18a1.32,1.32,0,0,1-2.64-.18v-.07l.74-11v-.08a1.35,1.35,0,0,1,2.7.18Z"/><path class="cls-7" d="M439.44,941,437.62,952a1.26,1.26,0,0,1-2.49-.4v-.06l1.74-11v-.05a1.3,1.3,0,1,1,2.56.41Z"/><path class="cls-7" d="M435.31,963l-2.85,10.84a1.2,1.2,0,0,1-2.32-.6v-.06l2.76-10.74v-.06a1.23,1.23,0,0,1,2.39.61Z"/><path class="cls-7" d="M429,984.51l-4.22,10.42a1.14,1.14,0,1,1-2.11-.85l0-.09,4.1-10.27,0-.08a1.17,1.17,0,1,1,2.18.86Z"/><path class="cls-7" d="M419.59,1004.94a74.72,74.72,0,0,1-6.43,9.3,1.08,1.08,0,0,1-1.67-1.36,73.14,73.14,0,0,0,6.19-9.06,1.11,1.11,0,0,1,1.92,1.11Z"/><path class="cls-7" d="M405.1,1022.25a37.08,37.08,0,0,1-9.94,5.66,1,1,0,1,1-.71-1.91,35.07,35.07,0,0,0,9.35-5.39,1,1,0,0,1,1.3,1.64Z"/><path class="cls-47" d="M1053.81,1059.14s-13.9-36.61-30.15-33.26-34,15.84-34,15.84L963.54,1077s73.27,28.87,99,12.32c0,0,74.84,12.94,169.34-2.57-13.68-28.88-21.83-57.8-26.62-80.24C1157.43,1033.61,1105.87,1053.85,1053.81,1059.14Z"/><path class="cls-48" d="M1450.23,793.57s-107.15,134.95-244.94,212.95c4.79,22.44,12.94,51.36,26.62,80.24,71.48-11.73,154.21-39.72,224.34-101.92Z"/><path class="cls-49" d="M19.17,855.8l212.7,534.94a63.39,63.39,0,0,0,67.91,39.31l557.78-41.19L656.65,820a35.56,35.56,0,0,0-34-22.9c-97.79,2.26-454,11-581.39,22.39A26.4,26.4,0,0,0,19.17,855.8Z"/><path class="cls-50" d="M281,1405.76,68.47,866a16.83,16.83,0,0,1,15.28-23L609,823.09a31.84,31.84,0,0,1,30.85,20.2l192.39,526.15Z"/><path class="cls-51" d="M2143.42,855.8l-212.7,534.94a63.39,63.39,0,0,1-67.91,39.31L1305,1391l200.91-571a35.56,35.56,0,0,1,34-22.9c97.79,2.26,454,11,581.39,22.39A26.4,26.4,0,0,1,2143.42,855.8Z"/><path class="cls-52" d="M1881.61,1405.76,2094.12,866a16.83,16.83,0,0,0-15.28-23l-525.27-19.94a31.84,31.84,0,0,0-30.85,20.2l-192.39,526.15Z"/><path class="cls-53" d="M647.18,811.41l6.65,178.66a489.56,489.56,0,0,0,54,15.33c10.71-34.49,34.31-76.83,53.63-108.31C690.49,872,647.18,811.41,647.18,811.41Z"/><path class="cls-54" d="M1001.55,808.37C904.18,913.5,825.37,919.68,761.47,897.09c-19.32,31.48-42.92,73.82-53.63,108.31,260,57.33,321.24-181.7,321.24-181.7Z"/><path class="cls-55" d="M1021.29,797.21s11.22-12.05,32-8.26,39.24,11,52.17,0,17.48,3.76,17.48,3.76l-38.73,29.44Z"/><path class="cls-56" d="M998.13,817.8s7.68-32.14,30.84-27.73,75.74,33,89.29,27.73,30.87-17.88,39.76-13.42l-15.66,19.47s40.26-23.23,47.18-9l-67,37.69S1024.58,842.77,998.13,817.8Z"/><path class="cls-57" d="M310.12,1400.22s-33.22-474.29,209-621.77c0,0,67.71-44.7,152.08,41.86s57.2,176.51-13.61,260.79S514.64,1316,531.8,1400.22Z"/><path class="cls-58" d="M641.15,649.26c-.07,5.65-80.72,120.2-80.72,120.2S574.91,798,644,821.12l59.65-122.65Z"/><path class="cls-59" d="M609.43,1042.55s153,128.14,318.23,72.23a39.34,39.34,0,0,1,31,2.33l47.5,25.09a42.4,42.4,0,0,0,56.2-15.74c6.6-11,12.23-23.64,13.35-35.72l-92.94-37.63,6.85-11.39s-45.38-3.85-57.26,28.67c0,0-86.43,36-232.2-124.38C700.18,946,634,1002.26,609.43,1042.55Z"/><path class="cls-60" d="M601.2,1042a3.39,3.39,0,0,1-1.9-.58c-64.61-43.66-95-114.13-95.31-114.83a3.39,3.39,0,0,1,6.24-2.65c.29.69,30,69.36,92.86,111.87a3.39,3.39,0,0,1-1.89,6.19Z"/><path class="cls-61" d="M697.16,944.61a3.39,3.39,0,0,1-2.85-1.56c-.19-.3-19.89-31-57.39-98.11-11.42-20.45-26.41-33.39-44.55-38.47-30.09-8.43-59.11,7.72-59.41,7.89a3.39,3.39,0,0,1-3.34-5.89c1.28-.73,31.67-17.69,64.51-8.54,20,5.57,36.36,19.6,48.7,41.71,37.38,66.93,57,97.45,57.17,97.75a3.38,3.38,0,0,1-2.84,5.22Z"/><path class="cls-62" d="M704.64,583.62s28.7,65.92,30.62,100.52,9.39,57-30.62,64-73.7-13-92-47.42c0,0-28.61-53.11-22.19-74.86S704.64,583.62,704.64,583.62Z"/><path class="cls-63" d="M626.35,676l2.28-1a5.49,5.49,0,0,0,2.68-7.54c-5.64-10.9-16.64-35.88-2.43-41.7,18.31-7.51,90.83-22.3,106.48-48,15-24.73,1.71-56.66-18.31-65.74a2.76,2.76,0,0,0-3.61,1.18l-1.67,3.15a2.71,2.71,0,0,1-5-.51h0a2.71,2.71,0,0,0-4.9-.7c-4.81,7.7-17.79,20.18-52.52,26.59-49.35,9.11-82,29.08-82.8,63.18a2.72,2.72,0,0,1-4.2,2.25c-3.65-2.22-9.48-3.27-17.27,3.29-13.56,11.39-8,41,21.7,65.28a2.7,2.7,0,0,1-.13,4.35c-5.38,3.51-13.41,11.85,7.4,23,21.52,11.51,37.59,10.56,43.78,9.54a2.7,2.7,0,0,0,2.19-3.27l-6.6-30a2.71,2.71,0,0,1,2.65-3.3Z"/><path class="cls-64" d="M627.59,682.27s-11-42.11-29.83-30.3,9.8,47.18,25,48.76Z"/><path class="cls-65" d="M958.68,1117.11s38.89,38,46.39,32.5c2.67-2,9.41-9.13,15.94-17.09a16.7,16.7,0,0,0,1.14-19.67L1013,1098.7a26.5,26.5,0,0,0-39.56-5.77C967.29,1098.26,961.74,1106,958.68,1117.11Z"/><path class="cls-66" d="M1571.4,1393.24s-.26-170.88-99.62-347.34c-31.07-55.19-42.13-119.43-32.44-182l10.89-70.3s136.35-46.14,287.49-2c0,0,209.57,173,69.51,615.39Z"/><path class="cls-67" d="M1473.44,703.84l35.36,84.94A16.91,16.91,0,0,0,1521.58,799c20.39,3.5,69.69,9,102.07-12.33a8.23,8.23,0,0,0,2.2-11.57l-65.32-93.78Z"/><path class="cls-2" d="M1560.64,1103a7.85,7.85,0,0,0-5,11.22L1658,1310.37a7.84,7.84,0,0,0,9.13,3.91l334.59-96.6a7.86,7.86,0,0,0,5.36-9.72l-57.63-199.52a7.85,7.85,0,0,0-9.55-5.41Z"/><path class="cls-68" d="M1582.22,1080a8.21,8.21,0,0,0-5.8,10.83l81.87,222.42a8.21,8.21,0,0,0,10,5L2001.86,1222a8.22,8.22,0,0,0,5.75-9.63l-46.23-214.06a8.22,8.22,0,0,0-9.93-6.26Z"/><path class="cls-69" d="M1611.28,1057.52a10.16,10.16,0,0,0-8.37,12.34l55.61,240.1a10.15,10.15,0,0,0,12.71,7.46l328.52-94.85a10.15,10.15,0,0,0,7-12.29l-50.52-196a10.17,10.17,0,0,0-11.37-7.51Z"/><path class="cls-70" d="M1877.21,1149.08c25.5-192.6-122.93-340.71-122.93-340.71l-88.32,103c67,83.57,98.92,160.15,113.48,220.3C1798.75,1126,1845.24,1117.12,1877.21,1149.08Z"/><path class="cls-71" d="M1779.44,1133.89a2.26,2.26,0,0,1-2.19-1.73c-18.06-74.61-56.09-148.43-113-219.42a2.26,2.26,0,0,1,3.52-2.83c57.37,71.52,95.7,145.93,113.92,221.19a2.25,2.25,0,0,1-1.67,2.72A1.88,1.88,0,0,1,1779.44,1133.89Z"/><path class="cls-72" d="M1779.44,1131.63c13.53,55.9,12.11,97.61,10,117.53a15.49,15.49,0,0,1-14.34,13.89c-8.55.6-20.19,1.39-30.59,2-11.44.66-24.13-6.57-32.61-12.61a5.1,5.1,0,0,0-7.52,6.45c6.33,12.4,22.41,23.43,33.49,29.91a5.29,5.29,0,0,1-1.22,9.66l-47.39,13.44c77.86,73.35,129.27-8.72,129.27-8.72,34.37-53.11,52.14-105,58.63-154.09C1845.24,1117.12,1798.75,1126,1779.44,1131.63Z"/><path class="cls-73" d="M1510,573.88c-1.48,1.4-62.66,121.55-62.66,121.55l69.34,33.48,74.91-105.26S1534.86,550.48,1510,573.88Z"/><path class="cls-74" d="M1560.07,636.28l-34.58,57.65a11.06,11.06,0,0,1-1.9,2.36c-4.11,3.83-18.2,15-29.09-.2-9.28-12.93-18-24.69-27.32-29.54a11.07,11.07,0,0,0-14.93,4.91c-5.69,11.3-16.73,34.32-23.67,56.15a11,11,0,0,0,6.41,13.5c14,5.69,41.8,16,66.42,19.38a11.08,11.08,0,0,0,10.46-4.45c10.59-14.51,40.46-55.08,50.65-65.23,9.47-9.43,26.94-5.88,34.82-3.61a11.12,11.12,0,0,0,8.83-1.16c8-4.81,21.93-16.8,9.18-37.09a11.08,11.08,0,0,1,3.42-15c8.92-5.86,18.6-16.88,9.38-34.71-9.33-18.06-26-19.68-37.36-18.29a11.49,11.49,0,0,1-12-6.7,7.32,7.32,0,0,0-5.71-4.5,10.75,10.75,0,0,1-8.69-12.61c2-10.21.5-23.49-15.82-32.46-29.92-16.45-56.12,10.36-62.79,33s26.79,38.61,47.83,41.28c15.46,2,23.94,18.83,27.35,27.65A11.1,11.1,0,0,1,1560.07,636.28Z"/><path class="cls-75" d="M1549.53,712s13.3-38.93,30.33-37.5,30.44,18.4,9.33,37.47C1562.94,735.67,1549.53,712,1549.53,712Z"/><path class="cls-76" d="M1047.22,1412.64a18.06,18.06,0,0,1-18.06,18.06H295.59a27.44,27.44,0,0,1-27.44-27.44l-11.54-13.41,761.69-6.53a29.32,29.32,0,0,1,28.92,29.32Z"/><path class="cls-77" d="M1115.37,1412.64a18.06,18.06,0,0,0,18.06,18.06H1867a27.44,27.44,0,0,0,27.44-27.44l11.54-13.41-761.69-6.53a29.32,29.32,0,0,0-28.92,29.32Z"/><circle class="cls-78" cx="133.58" cy="1143.22" r="59.39" transform="translate(-937.4 721.56) rotate(-61.85)"/><circle class="cls-79" cx="133.58" cy="1143.22" r="57.41" transform="translate(-112 18.73) rotate(-5.65)"/><path class="cls-30" d="M86.24,1121.6a2.23,2.23,0,0,1-2-3.23,55.28,55.28,0,0,1,59.29-29.48,2.23,2.23,0,1,1-.8,4.38,51.75,51.75,0,0,0-9.16-.82,50.55,50.55,0,0,0-45.35,27.93A2.24,2.24,0,0,1,86.24,1121.6Z"/><circle class="cls-30" cx="134.83" cy="1144.47" r="48.59" transform="translate(-643.73 294.87) rotate(-35.78)"/><path class="cls-80" d="M130.07,1180.6v-5.29a43,43,0,0,1-14.84-3.22,3,3,0,0,1-1.69-3.61l1.34-4.92a3.09,3.09,0,0,1,4.19-2,35.77,35.77,0,0,0,13.69,2.88c5.31,0,9.27-1.8,9.27-5.49,0-3.32-3.06-5.3-10.44-7.28-10.52-2.88-18.08-7.47-18.08-16.74,0-8.37,6.12-14.75,16.74-16.46v-5.29a3.07,3.07,0,0,1,3.08-3.08h3.1a3.08,3.08,0,0,1,3.08,3.08v4.75a39.07,39.07,0,0,1,11.76,2.11,3.08,3.08,0,0,1,1.92,3.7l-1.24,4.55a3.07,3.07,0,0,1-4,2.08,32,32,0,0,0-11.54-2.1c-6.29,0-8.09,2.61-8.09,5,0,2.88,3.77,4.86,12,7.38,11.7,3.51,16.56,8.37,16.56,17.09,0,8-5.94,15.21-17.46,17v5.92a3.08,3.08,0,0,1-3.08,3.08h-3.1A3.07,3.07,0,0,1,130.07,1180.6Z"/><circle class="cls-81" cx="302.63" cy="1072.79" r="103.38" transform="translate(-669.94 528.21) rotate(-45)"/><circle class="cls-82" cx="302.63" cy="1072.79" r="99.95" transform="translate(-669.94 528.21) rotate(-45)"/><path class="cls-30" d="M220.22,1033.5a2.29,2.29,0,0,1-1-.23,2.23,2.23,0,0,1-1-3,94.08,94.08,0,0,1,84.4-52,96.1,96.1,0,0,1,17.05,1.53,2.23,2.23,0,0,1-.8,4.39,90.93,90.93,0,0,0-16.25-1.46,89.66,89.66,0,0,0-80.42,49.52A2.22,2.22,0,0,1,220.22,1033.5Z"/><circle class="cls-30" cx="304.81" cy="1074.97" r="84.59"/><path class="cls-83" d="M296.51,1137.86v-9.21a75,75,0,0,1-25.82-5.59,5.33,5.33,0,0,1-2.95-6.29l2.34-8.58a5.37,5.37,0,0,1,7.29-3.51,62.15,62.15,0,0,0,23.84,5c9.24,0,16.13-3.13,16.13-9.55,0-5.8-5.32-9.24-18.17-12.69-18.32-5-31.48-13-31.48-29.13,0-14.57,10.65-25.69,29.13-28.66v-9.21a5.36,5.36,0,0,1,5.37-5.36h5.4a5.37,5.37,0,0,1,5.37,5.36v8.27a68.28,68.28,0,0,1,20.46,3.67,5.34,5.34,0,0,1,3.34,6.44l-2.15,7.93a5.35,5.35,0,0,1-7.06,3.61,56,56,0,0,0-20.08-3.64c-11,0-14.09,4.54-14.09,8.61,0,5,6.58,8.46,20.83,12.85,20.36,6.11,28.82,14.56,28.82,29.76,0,13.94-10.34,26.47-30.39,29.6v10.3a5.36,5.36,0,0,1-5.36,5.36h-5.41A5.36,5.36,0,0,1,296.51,1137.86Z"/><circle class="cls-84" cx="373.93" cy="1303.71" r="106.38" transform="translate(-979 1398.86) rotate(-78.02)"/><circle class="cls-85" cx="373.93" cy="1303.71" r="102.84" transform="translate(-812.34 646.26) rotate(-45)"/><path class="cls-30" d="M289.13,1263.22a2.3,2.3,0,0,1-1-.24,2.23,2.23,0,0,1-1-3,97.3,97.3,0,0,1,104.32-51.86,2.23,2.23,0,1,1-.8,4.39,93.45,93.45,0,0,0-16.73-1.51,92.33,92.33,0,0,0-82.81,51A2.23,2.23,0,0,1,289.13,1263.22Z"/><circle class="cls-30" cx="376.17" cy="1305.95" r="87.05" transform="translate(-981.27 1372.01) rotate(-76.72)"/><path class="cls-86" d="M367.63,1370.66v-9.47a77.5,77.5,0,0,1-26.57-5.76,5.48,5.48,0,0,1-3-6.47l2.41-8.82a5.52,5.52,0,0,1,7.49-3.62,64,64,0,0,0,24.54,5.17c9.51,0,16.6-3.23,16.6-9.83,0-6-5.48-9.51-18.7-13.06-18.85-5.15-32.39-13.37-32.39-30,0-15,11-26.43,30-29.5v-9.47a5.52,5.52,0,0,1,5.51-5.52H379a5.52,5.52,0,0,1,5.51,5.52v8.51a70.11,70.11,0,0,1,21.07,3.78,5.49,5.49,0,0,1,3.43,6.63l-2.21,8.15a5.51,5.51,0,0,1-7.27,3.72,57.42,57.42,0,0,0-20.66-3.75c-11.28,0-14.5,4.67-14.5,8.86,0,5.16,6.77,8.71,21.43,13.22,21,6.29,29.66,15,29.66,30.62,0,14.34-10.64,27.24-31.27,30.46v10.6a5.52,5.52,0,0,1-5.51,5.52h-5.57A5.52,5.52,0,0,1,367.63,1370.66Z"/><circle class="cls-87" cx="510.41" cy="1158.8" r="77.95" transform="translate(-686.54 1571.89) rotate(-85.27)"/><circle class="cls-88" cx="510.41" cy="1158.8" r="75.35" transform="translate(-669.9 700.32) rotate(-45)"/><path class="cls-30" d="M448.27,1129.72a2.11,2.11,0,0,1-1-.24,2.23,2.23,0,0,1-1-3A71.5,71.5,0,0,1,510.41,1087a72.69,72.69,0,0,1,12.95,1.16,2.23,2.23,0,0,1-.8,4.39,67.48,67.48,0,0,0-72.3,35.94A2.21,2.21,0,0,1,448.27,1129.72Z"/><circle class="cls-30" cx="512.05" cy="1160.44" r="63.78" transform="translate(-355.25 234.91) rotate(-19.33)"/><path class="cls-89" d="M505.79,1207.85v-6.94a56.48,56.48,0,0,1-19.47-4.22,4,4,0,0,1-2.22-4.74l1.77-6.46a4,4,0,0,1,5.49-2.65,47,47,0,0,0,18,3.78c7,0,12.17-2.36,12.17-7.2,0-4.37-4-7-13.7-9.56-13.82-3.78-23.74-9.81-23.74-22,0-11,8-19.36,22-21.61v-6.94a4,4,0,0,1,4-4h4.08a4,4,0,0,1,4,4v6.23a52,52,0,0,1,15.43,2.77,4,4,0,0,1,2.52,4.86l-1.63,6a4,4,0,0,1-5.32,2.72,42.2,42.2,0,0,0-15.13-2.75c-8.27,0-10.63,3.43-10.63,6.5,0,3.78,5,6.37,15.7,9.68,15.36,4.61,21.73,11,21.73,22.44,0,10.51-7.79,20-22.91,22.32v7.76a4,4,0,0,1-4,4h-4.08A4,4,0,0,1,505.79,1207.85Z"/><path class="cls-5" d="M1734.25,875.9a5.15,5.15,0,0,1,1-10c24.58-3.19,60.61-12.82,72.4-41.66C1826.16,779,1787.81,604.53,1964,573.32c162.5-28.8,253,22.62,251,172.78C2212.93,891.65,1979,959.89,1734.25,875.9Z"/><rect class="cls-2" x="1859.63" y="714.71" width="15.76" height="123.34"/><rect class="cls-2" x="1885.97" y="757.1" width="15.76" height="80.95"/><rect class="cls-2" x="1912.3" y="652.33" width="15.76" height="185.71"/><rect class="cls-2" x="1938.64" y="793.43" width="15.76" height="44.61"/><rect class="cls-2" x="1964.98" y="677.16" width="15.76" height="160.88"/><rect class="cls-2" x="1991.31" y="705.02" width="15.76" height="133.03"/><rect class="cls-2" x="2017.65" y="735.29" width="15.76" height="102.75"/><rect class="cls-2" x="2043.99" y="614.79" width="15.76" height="223.26"/><rect class="cls-2" x="2070.33" y="638.41" width="15.76" height="199.64"/><rect class="cls-2" x="2096.66" y="674.13" width="15.76" height="163.91"/><rect class="cls-2" x="2123" y="797.57" width="15.76" height="40.47"/></g></g></svg>