<svg xmlns="http://www.w3.org/2000/svg" viewBox="0 0 853.67 412.94"><defs><style>.cls-1{fill:#e3e7f6;}.cls-2{fill:#96afdb;}.cls-3{fill:#2e3552;}.cls-4{fill:#f49648;}.cls-5{fill:#ced5ed;}.cls-6{fill:#f9fafe;}.cls-7{fill:#2a488c;}.cls-8{fill:#dde3f4;}.cls-9{fill:#4d67ac;}.cls-10{fill:#ed7d2b;}.cls-11{fill:#9faeda;}.cls-12{fill:#cbd3ed;}.cls-13{fill:#35488c;}.cls-14{fill:#e5c7bd;}.cls-15{fill:#f28e3f;}.cls-16{fill:#f18939;}.cls-17{fill:#f7b17f;}.cls-18{fill:#233862;}.cls-19{fill:#aa453d;}.cls-20{fill:#ee975d;}.cls-21{fill:#b0c1e5;}.cls-22{fill:#fff;}.cls-23{fill:#2a4e96;}.cls-24{fill:#1a355e;}.cls-25{fill:#f5a46c;}.cls-26{fill:#2d3a64;}.cls-27{fill:#ee985f;}.cls-28{fill:#d4dcf1;}.cls-29{fill:#c6d1ec;}.cls-30{fill:#a2b7e0;}</style></defs><g id="Capa_2" data-name="Capa 2"><g id="Capa_1-2" data-name="Capa 1"><path class="cls-1" d="M824.57,410.73c-.26.62-45.68,1.35-46,2H701.17l-22.66-.06H475.68l-59.23-.06H260.29l-65.23-.06H77.11L76.53,411l-.07-.13a.6.6,0,0,1-.06-.18c-.26-.49-104.22-138.72,57.4-234.94,63.24-37.65-4-62.51,46.33-104.42,33.2-27.67,68.15-21.86,104.07-16,37.63,6.09,76.34,12.18,115.21-20.27,74.27-61.95,230.5-33.59,294.53,21.48,8.4,7.22,50.41,32.89,20.32,84.25-19,32.42,37.08,40.47,65.23,42.36,96.25,6.46,45.73,226.35,45.08,227.58"/><path class="cls-2" d="M572.44,124.79a1.62,1.62,0,0,1-1.62-1.61V53.34a1.61,1.61,0,1,1,3.22,0v69.84a1.61,1.61,0,0,1-1.6,1.61"/><path class="cls-3" d="M852.7,412.94H1a1,1,0,0,1-1-1v-.32a1,1,0,0,1,1-1H852.7a1,1,0,0,1,1,1V412a1,1,0,0,1-1,1"/><path class="cls-4" d="M284.69,310.88a4,4,0,0,1-2.24-.69,2.39,2.39,0,0,1-.78-3.39,13.32,13.32,0,0,0,1.54-4.74l.47,0A13.4,13.4,0,0,1,282.1,307a2,2,0,0,0,.66,2.93,3.29,3.29,0,0,0,3.36.24l.27.31a3.38,3.38,0,0,1-1.7.43Z"/><path class="cls-5" d="M319.17,273H317a8.66,8.66,0,0,0,5.33-1.83,8.88,8.88,0,0,0,3.35-5.76,58.93,58.93,0,0,1,2.14-9.29c6.67-21,25-39.22,46.47-39.22h83.54a20.47,20.47,0,0,1,20.48,20.49v3.09h0a20.86,20.86,0,0,0-19.69-13.65H373.4c-18.39,0-34.47,12.76-43.19,29.29a60.5,60.5,0,0,0-5.6,15.05,9,9,0,0,1-5.44,1.83"/><path class="cls-6" d="M630,146.46V392.92a17.45,17.45,0,0,1-17.46,17.46H221.94a17.47,17.47,0,0,1-17.38-15.68c0-.44-.07-.88-.08-1.33,0-.16,0-.3,0-.45V332.7c0-.47,0-.93.06-1.39a17.46,17.46,0,0,1,17.41-16.07H456.65a21.64,21.64,0,0,0,21.62-21.62V237.41a20.47,20.47,0,0,0-20.48-20.49H374.25c-21.51,0-39.8,18.17-46.47,39.22a58.93,58.93,0,0,0-2.14,9.29,8.88,8.88,0,0,1-3.35,5.76A8.66,8.66,0,0,1,317,273H242.19a14.51,14.51,0,0,1-14.51-14.5V147.15a23.25,23.25,0,0,1,.33-3.93,23.85,23.85,0,0,1,23.53-19.92H606.85a23.15,23.15,0,0,1,22.87,19.55,22.55,22.55,0,0,1,.28,3.61"/><polyline class="cls-7" points="281.88 272.85 290.16 272.85 290.16 302.07 281.88 302.07 281.88 272.85"/><polygon class="cls-7" points="290.16 285.07 299.85 285.07 299.85 279.87 290.16 279.87 290.16 285.07 290.16 285.07"/><path class="cls-7" d="M298.86,282.47a4.89,4.89,0,1,1,4.89,4.89,4.89,4.89,0,0,1-4.89-4.89Z"/><polygon class="cls-7" points="283.07 296.77 277.63 296.77 277.63 292.49 283.07 292.49 283.07 296.77 283.07 296.77"/><polyline class="cls-7" points="310.06 123.13 297.45 123.13 297.45 114.94 310.06 114.94 310.06 123.13"/><path class="cls-4" d="M587.11,117.92H559.22a4.77,4.77,0,0,1-4.77-5l.46-7.83V105l.31-5.27.84-14.7.27-4.63L557,69.15l.24-4.11a4.78,4.78,0,0,1,4.76-4.5h21.88A4.79,4.79,0,0,1,588.62,65l.23,3.3.64,9.48.1,1.5,1.06,15.61.85,12.49.37,5.46a4.76,4.76,0,0,1-4.76,5.09"/><path class="cls-5" d="M304.15,123.3h-.79v-.17h.79v.17m-17.73,0h-.79v-.17h.79v.17"/><polyline class="cls-8" points="304.14 252.61 286.42 252.61 286.42 252.21 285.63 252.21 285.63 252.61 285.63 123.3 286.42 123.3 286.42 251.82 303.36 251.82 303.36 123.3 304.14 123.3 304.14 252.61"/><polyline class="cls-9" points="304.14 123.13 303.36 123.13 303.36 122.99 304.14 122.99 304.14 123.13"/><path class="cls-10" d="M642.79,229.32H630V159.6h12.78a5,5,0,0,1,5,5v59.69a5,5,0,0,1-5,5Z"/><polygon class="cls-11" points="314.43 315.07 255.48 315.07 255.48 313.68 314.43 313.68 314.43 315.07 314.43 315.07"/><polygon class="cls-7" points="286.02 171.05 280.35 164.43 280.35 123.13 286.02 123.13 286.02 171.05 286.02 171.05"/><polyline class="cls-8" points="286.42 272.85 285.63 272.85 285.63 252.61 286.42 252.61 286.42 272.85"/><polyline class="cls-9" points="286.42 272.85 285.63 272.85 286.42 272.85 286.42 272.85"/><polyline class="cls-12" points="286.42 252.61 285.63 252.61 285.63 252.21 286.42 252.21 286.42 252.61"/><path class="cls-5" d="M630,393.14h0a1.62,1.62,0,0,1,0-.22v-.57h0v.79"/><path class="cls-8" d="M630,393.14H612.62l0-.79H630v.79"/><path class="cls-5" d="M204.47,393.14h0v0"/><path class="cls-8" d="M576.83,393.14H204.47v-.79h372.4l0,.54h0v.25"/><path class="cls-7" d="M325.78,143.94a3.15,3.15,0,1,1,3.15,3.15,3.15,3.15,0,0,1-3.15-3.15Z"/><path class="cls-7" d="M338.15,143.94a3.15,3.15,0,1,1,3.15,3.15,3.15,3.15,0,0,1-3.15-3.15Z"/><path class="cls-7" d="M350.52,143.94a3.15,3.15,0,1,1,3.15,3.15,3.15,3.15,0,0,1-3.15-3.15Z"/><polygon class="cls-7" points="304.81 117.85 302.76 117.85 302.76 106.82 304.81 106.82 304.81 117.85 304.81 117.85"/><polygon class="cls-7" points="286.33 313.68 286.14 313.68 285.5 302.07 287.01 302.07 286.33 313.68 286.33 313.68"/><polygon class="cls-7" points="288.72 313.68 288.52 313.68 287.88 302.07 289.39 302.07 288.72 313.68 288.72 313.68"/><path class="cls-13" d="M289.52,313.68h-4.34a1.56,1.56,0,0,1-1.49-1.62.45.45,0,1,1,.9,0,.62.62,0,0,0,.59.64h4.34a.62.62,0,0,0,.6-.64.47.47,0,0,1,.45-.49.48.48,0,0,1,.45.49,1.57,1.57,0,0,1-1.5,1.62Z"/><path class="cls-4" d="M570,323.9H556.34a6.06,6.06,0,0,1,0-12.12H570a6.06,6.06,0,0,1,0,12.12Z"/><path class="cls-10" d="M556.2,312.18a5.52,5.52,0,0,0-5.52,5.51v.3a5.52,5.52,0,0,0,5.52,5.52h41.28A5.53,5.53,0,0,0,603,318v-.3a5.52,5.52,0,0,0-5.52-5.51Zm41.28,12.11H556.2a6.31,6.31,0,0,1-6.31-6.3v-.3a6.31,6.31,0,0,1,6.31-6.3h41.28a6.31,6.31,0,0,1,6.31,6.3v.3a6.31,6.31,0,0,1-6.31,6.3Z"/><path class="cls-7" d="M555.65,303.5h0a1.69,1.69,0,0,1-1.68-1.68v-5.51a1.68,1.68,0,0,1,3.35,0v5.51a1.68,1.68,0,0,1-1.67,1.68Z"/><path class="cls-7" d="M577.89,303.5h0a1.68,1.68,0,0,1-1.67-1.68v-5.51a1.67,1.67,0,1,1,3.34,0v5.51a1.68,1.68,0,0,1-1.67,1.68Z"/><path class="cls-7" d="M600.13,303.5h0a1.69,1.69,0,0,1-1.67-1.68v-5.51a1.68,1.68,0,0,1,3.35,0v5.51a1.68,1.68,0,0,1-1.68,1.68Z"/><polyline class="cls-14" points="555.21 99.71 555.54 94.06 555.22 99.71 555.21 99.71"/><path class="cls-15" d="M555.22,99.71l.32-5.65.52-9a31.2,31.2,0,0,0,3.18.13,71,71,0,0,0,30.25-7.37l.58,8.48s-8.9,11-34.86,13.46"/><path class="cls-16" d="M576.67,117.92H559.22a4.78,4.78,0,0,1-4.78-4.76c0-.09,0-.19,0-.28l.46-7.83V105a108.6,108.6,0,0,0,35.74-10.1l.85,12.49s-4.75,5.73-14.83,10.55"/><path class="cls-16" d="M556.33,80.38,557,69.15c.75,0,1.56.06,2.41.06A48.14,48.14,0,0,0,586,61.06,4.77,4.77,0,0,1,588.62,65l.23,3.3c-3.14,2.89-12.7,10-32.52,12.09"/><path class="cls-4" d="M286.14,123.26l-.24-.25,16.79-16.36h.07c58.53-2.88,113.88-17.87,114.43-18l.1.34c-.56.15-55.9,15.14-114.45,18l-16.7,16.27Z"/><path class="cls-17" d="M452,161.72a1.66,1.66,0,0,1,.3,1.8h0c-.44,1.2-1.88,2.55-3.54,3.89-.22.17-.41.33-.57.47l-.13.12-.1.08c-1.56,1.44-1,1.77-3.77,4.68-3.19,3.32-5.39,3.38-6,3.08s.54-2,1.73-4l.18-.29.47-.79c1.4-2.38,1-3.5.71-7-.27-2.88-4.48-16.1-4.48-16.1l6.11-1s1.84,10.52,3.87,12.14c1.08.86,2.3.88,3.34,1.52l.22.13a8,8,0,0,1,1.67,1.35Z"/><path class="cls-18" d="M452,161.72a1.66,1.66,0,0,1,.3,1.8h0a13.22,13.22,0,0,1-3.55,3.88c-.21.17-.4.33-.56.48l-.13.12-.1.08c-1.56,1.44-1,1.77-3.77,4.68-3.19,3.32-5.39,3.38-6,3.08s.54-2,1.73-4a13.47,13.47,0,0,0,5.69-4.19c1.92-2.45,3.2-5.6,4.51-7.42l.22.13a8,8,0,0,1,1.67,1.35Z"/><path class="cls-17" d="M402.72,157.9c-.38,1.89-3.07,1.57-6.07.84s-2.3.14-6.57-.34-5.58-2.07-5.71-2.7,2-.77,4.27-1l.86-.1c2.55-.32,4.43-2,6.75-3.33s5.49-6.52,5.49-6.52l5.87.47s-3.08,4.67-4.27,6.7a7.17,7.17,0,0,0-.58,4,7.52,7.52,0,0,1,0,2Z"/><path class="cls-18" d="M396.65,158.74c-3-.74-2.3.14-6.57-.34s-5.58-2.07-5.71-2.7,2-.77,4.27-1l0,.05a12,12,0,0,0,6.12,1.9c2.91.07,6-.76,8-.73a7.52,7.52,0,0,1,0,2c-.38,1.89-3.07,1.57-6.07.84Z"/><path class="cls-10" d="M425.2,120.39l5.49,14.75,7.16,19.27a11.47,11.47,0,0,0,3.8-.35,16.36,16.36,0,0,0,3.68-1.79s-2-20.69-5.7-32.56a21.14,21.14,0,0,0-3.19-6.9c-5.75-6.8-11.24,7.58-11.24,7.58Z"/><path class="cls-4" d="M430.78,97c3.59-1.16,13.84.33,24.13,2.34l2.16-3.55L479.3,94s7.34,16.27,3.32,26.64a3.75,3.75,0,0,1-3.76,2.53H461c-11.05,0-23.4-7.61-25-7.92-2.62-.53-3.66,4.7-6.28,10.19s-24.57,24.31-24.57,24.31a19.51,19.51,0,0,1-4.77-.49,4.65,4.65,0,0,1-2-1.3s24.32-48.4,32.43-51Z"/><path class="cls-19" d="M453.08,62.82c6.7,6.06,23.06,16.82,23.15,16.78s5.24,3.52,9,2.12c6.29-2.32,11.5-11.34,3.53-22-4-5.33-7.4-7.2-6.22-14,1.28-7.32-1.56-16.76-10-17.59-.71-.07-5-.87-8.09-.07-7.94,2-22.52,30.4-11.35,34.77Z"/><path class="cls-17" d="M463,58.83s3.71,2.4,6.54,1.87c2.65-.5,5.23-4,5.19-4-1.08-.31-1.87-1.63-1.31-8.13l-.51.06-8.5,1s0,2.65-.23,5.13c-.16,2.09-.68,3.88-1.18,4.06Z"/><path class="cls-20" d="M464.36,49.64s0,2.65-.23,5.13c4.69.25,7.52-3.81,8.73-6.1l-8.5,1Z"/><path class="cls-17" d="M462.6,51.86s11.06,1.09,11.64-5.81,2.38-11.4-4.66-12.39-8.63,1.53-9.38,3.79-.46,13.95,2.4,14.41Z"/><path class="cls-19" d="M463.78,32.57s1.4,8.43,7.7,10.43c4.6,1.46,6.68.5,6.68.5a18.67,18.67,0,0,1-3-7,3.37,3.37,0,0,0-2.25-2.57c-3.27-1.07-7.23-4-9.13-1.34Z"/><path class="cls-19" d="M465.87,34.37a7.27,7.27,0,0,0-3.93,3.15c-1,1.47-2.18,5.18-2,6.82,0,0-1.94-7.8.88-10.7,3-3.08,5,.73,5,.73Z"/><path class="cls-21" d="M483.1,81.67c-.19.84-.36,1.61-.5,2.32-.22,1.15-.38,2.14-.49,3-.34,2.72-.23,4.33-.46,6.1a15.41,15.41,0,0,1-.83,3.32c-.46,1.26-12.48,2.39-19.32,1.93-2.17-.14-3.83-.45-4.41-.95-2.44-2.12-2.2,2.54-2.54-19.76-.16-10.88,9.23-20.57,9.23-20.57s.75,4.65,10.07-.88c.33-.19,4,5.24,7.53,11.93,3.89,7.39,2.82,8.95,1.72,13.55Z"/><path class="cls-4" d="M430.69,135.14l7.16,19.27a11.47,11.47,0,0,0,3.8-.35,16.36,16.36,0,0,0,3.68-1.79s-2-20.69-5.7-32.56l-8.94,15.43Z"/><path class="cls-21" d="M463.78,57.07s-9.58,1.63-10.7,5.75S444.17,90,444.17,90s6,2,8.28-.2S460.28,69,460.28,69l3.5-11.88Z"/><path class="cls-17" d="M424.72,84.72l-2.27-.9a5.5,5.5,0,0,0-2.11-.07c-.74.23-2.58.21-2.59.51s2.11,1.25,2.11,1.25l.06,0c-.8,1.82-4.82,2.86-5,3.52-.23.81,1.63,1.23,2.65,1.48s3.51.23,4.74-1.07c.9-.94,2.42-2.25,2.42-2.25V84.72Z"/><path class="cls-22" d="M465.15,47.79a1.89,1.89,0,0,1-1.68,1.14c-1.23,0-1.56-.18-1.79-.44a4.16,4.16,0,0,1-.47-.76,10.53,10.53,0,0,1,3.94.06Z"/><path class="cls-21" d="M446.85,82.05l-23.21,1.77a7.24,7.24,0,0,0,1,4.8s20.93,4.1,26.39,2,4.85-11.95,4.85-11.95l-9,3.37Z"/><path class="cls-17" d="M461.31,82.45l-1.54-1.89a5.41,5.41,0,0,0-1.8-1.09c-.76-.16-2.35-1.08-2.51-.82s1.23,2.11,1.23,2.11h.07c-1.59,1.2-5.6.14-6.09.63s.82,1.87,1.59,2.59,2.95,1.91,4.65,1.38c1.25-.39,3.21-.79,3.21-.79l1.19-2.13Z"/><path class="cls-2" d="M482.11,87c-.34,2.72-.23,4.33-.46,6.1-8.7,0-20.34-6.72-20.34-6.72l20.8.62Z"/><path class="cls-2" d="M461.31,80.67s13.56-.41,15.84-8.11c2.51-8.47,5.32,3.48,5.32,3.48L481,83.67H466.11l-4.8-3Z"/><path class="cls-21" d="M473.85,56.19s8.8.58,11,4,4.93,20.86,3.78,26.84-29.32-1.14-29.32-1.14l.9-5.2s16.26.1,17.19-2c1.23-2.82-3.55-22.49-3.55-22.49Z"/><path class="cls-4" d="M485.62,84.39c-10.81,0-21.38-.8-29.87-3a.18.18,0,0,1,.09-.34c9.67,2.53,28.46,4.76,63.05,1,20.7-2.24,37.46-5.6,37.63-5.64a.17.17,0,0,1,.2.14.18.18,0,0,1-.13.21c-.17,0-17,3.4-37.66,5.64a317.46,317.46,0,0,1-33.31,2Z"/><path class="cls-4" d="M429.08,87.74a104.59,104.59,0,0,1-10.7-.57.18.18,0,0,1-.15-.19.17.17,0,0,1,.19-.16c21.8,2.25,33.65-2.94,33.76-3a.19.19,0,0,1,.24.09.18.18,0,0,1-.09.24c-.1,0-8.2,3.59-23.25,3.59Z"/><path class="cls-23" d="M545.46,234.55a32,32,0,1,1,32,32,32,32,0,0,1-32-32Z"/><path class="cls-22" d="M553.36,235.06a24.13,24.13,0,1,1,24.13,24.12,24.13,24.13,0,0,1-24.13-24.12Z"/><path class="cls-23" d="M552.75,168.1a19.57,19.57,0,1,1,19.57,19.57,19.57,19.57,0,0,1-19.57-19.57Z"/><path class="cls-22" d="M557.58,168.41a14.74,14.74,0,1,1,14.74,14.74,14.74,14.74,0,0,1-14.74-14.74Z"/><path class="cls-10" d="M509.78,228s11.5,3.15,17.45,1.67,17.41-7.77,17.41-7.77l1.8,3.15s-9.37,14-18,15.55S509.78,228,509.78,228Z"/><path class="cls-17" d="M563.38,266.67s6,2.38,8,1.74,5.47-2.57,6.09-4.16-4.08.42-5.68,0a10.48,10.48,0,0,0-6.44,0c-3.11.9-1.93,2.42-1.93,2.42Z"/><path class="cls-24" d="M509.25,403.61s.45,7.25,1.79,8.95h20.7a3.69,3.69,0,0,0-3.3-3c-3.28-.57-8.75-2.87-10.73-7.19-2.08-4.54-8.46,1.2-8.46,1.2Z"/><path class="cls-24" d="M472.52,402.6s-1.36,9,.41,9.18c.23,0,8.52,0,10.78.35a56.63,56.63,0,0,0,9.82.07,1,1,0,0,0,.88-1.47,3.94,3.94,0,0,0-2.81-1.8c-3.26-.63-8.69-3-10.6-7.38-2-4.58-8.48,1.05-8.48,1.05Z"/><path class="cls-2" d="M519,307.22s-5.21,18.21-20.12,49.84-16.06,46-16.06,46l-10.28-.49s1-37.64,8-53.59S489,289.38,489,289.38l30,17.84Z"/><path class="cls-21" d="M527.33,291.55a453.45,453.45,0,0,1-4.46,62.82c-4.88,34.62-3.23,49.32-3.23,49.32l-11.68.39s-7-34.64-5-52-9.56-59.46-9.56-59.46l33.91-1.1Z"/><path class="cls-17" d="M504.28,225.57l5.51,4.08,8-1.67c-.1-.73-.63-3.74-1.11-6.47,0-.16-.06-.32-.08-.48-.42-2.32-.77-4.31-.77-4.31L508.35,213l-2.77-1.38c0,.05.21,2.57.24,2.94a23.86,23.86,0,0,1-1.54,11Z"/><path class="cls-4" d="M528.4,292.48c.51,5-39.75,11-39.91,2.55-.13-7.42,4.29-48.28,5.66-54.12,2.42-10.35,4.6-16.26,9.21-17.61,1.7-.5,8,1.13,12.52,2.45a6.51,6.51,0,0,1,.94.32,9.59,9.59,0,0,1,5.63,6.17c.7,2.36,1.51,5.37,2.16,8.7a66.27,66.27,0,0,1,1.22,9.45c0,.67.06,1.34.06,2,0,2.47.24,5.66.55,9.21.19,2.23.42,4.61.65,7l.21,2.09c.05.49.82,16.45,1.05,20.73a1,1,0,0,0,0,.17v0a1.09,1.09,0,0,0,0,.18c0,.38,0,.61,0,.66Z"/><path class="cls-25" d="M506.38,214.69c1.63,3.13,7.72,5.83,10.26,6.82,0-.16-.06-.32-.08-.48-.42-2.32-.77-4.31-.77-4.31L508.35,213c-1.64,0-2.64.39-2,1.68Z"/><path class="cls-17" d="M519.41,216.28s-13.43,4.19-15.9-4.21-5.88-13.51,2.58-16.54,11.08-.32,12.59,2.29,4.15,17.16.73,18.46Z"/><path class="cls-24" d="M518.16,197s-.86,9.77-2.88,9.35-3.86-.74-3.56,2.2,3.1,6.35-3.13,6.87-15.18-15.54-13.47-18.58c4.93-8.78,30.17-10.55,23,.16Z"/><path class="cls-17" d="M544.64,221.88s2.48-4.87,4.44-6.36,7.09-1,7.28-.6c.58,1.23-4.19,3-4.76,4.11s1.69,1-.09,2.93c-1.51,1.6-5.07,3.07-5.07,3.07l-1.8-3.15Z"/><path class="cls-17" d="M549.61,220l3.17-.36c1.14-.12,2.25-.63,2.72-.65,1.11,0,.33,1.7-2.06,2.57-2,.74-2.6,1.94-4.5,2.26-2.31.39.67-3.82.67-3.82Z"/><path class="cls-10" d="M517.2,223.51c-.18-.07-10.84-3.22-12-2.84s-1.85,2.63-1.85,2.63L519.82,228s-.39-3.53-2.62-4.47Z"/><path class="cls-17" d="M565.31,264.25a10.47,10.47,0,0,1,3.57-2c1.66-.37,3.12-1.87,3.12-1.15s-1.25,2.5-1.25,3.12-5.44,0-5.44,0Z"/><path class="cls-10" d="M526.44,261.6c-8.56-3.25-15-15.86-15-15.86l14.43,4.65c0,.67.06,1.34.06,2,0,2.47.24,5.66.55,9.21Z"/><path class="cls-4" d="M565.58,265.63l0-.07a3.18,3.18,0,0,0-1.7-3.65c-5.37-2.59-19.29-9.3-20.84-10.13s-17.93-16.54-22.8-21.24a3.14,3.14,0,0,0-3.18-.73l-13.5,4.41a3.17,3.17,0,0,0-.81,5.62c9.93,6.81,30.7,21,34.43,22.87,6.58,3.37,19.9,5.13,24.82,5.68a3.15,3.15,0,0,0,3.26-1.9,6.18,6.18,0,0,0,.3-.86Z"/><path class="cls-10" d="M148.63,287.22s-16.46,1.56-25.29,27.36-6.26,73.9-12.79,78.72-41.73-7.49-44.55.42,0,8.86-7.74,5.1-20.89-5-18.07,1.24-14.55,2.06-14.08,10.62h88.62s42-4.34,40.5-23.12S139,325,147.88,308.47s20.56-25.14,20.56-25.14l-19.81,3.89Z"/><path class="cls-21" d="M136.22,404.38l-3.72,1.38s-16.18-22.43-18.17-42.17a30.09,30.09,0,0,1,.53-10.09s-.15-.91-.43-2.5c-.13-.75-.29-1.64-.47-2.67-.52-3-1.25-7.14-2.07-11.83-1.91-10.81-4.37-24.62-6.29-34.77l1-.32,10.85-3.5,2.25-7.13,8.08-2.13s1.81,3.53,3.42,20.22c.3,2.19.57,4.61.77,7.23a143,143,0,0,1-.76,29.23c-.38,2.9-.84,5.9-1.42,9a39.74,39.74,0,0,0-.31,8.86c.81,16.14,6.73,41.22,6.73,41.22Z"/><path class="cls-2" d="M132,316.1,114.43,351c-.13-.75-.29-1.64-.47-2.67-.52-3-1.25-7.14-2.07-11.83-1.91-10.81-4.37-24.62-6.29-34.77l1-.32,10.85-3.5,2.25-7.13,8.08-2.13s1.81,3.53,3.42,20.22c.3,2.19.57,4.61.77,7.23Z"/><path class="cls-21" d="M124.26,293.13l-.4-3.48c-6.81,1.8-25-5.06-25-5.06s-6.59,5.8-5.73,19.7c.43,6.78,1.2,35.61,2,44.14.29,3.09.54,5.29.65,6.17h0a1.18,1.18,0,0,1-.2.75,40.67,40.67,0,0,0-3,6.26c-7.91,21.09,1.22,47.07,1.22,47.07l2.37-.95s5.2-28.91,9.42-41.68a25.46,25.46,0,0,1,2-4.89c1.84-3,3.54-7.81,5.09-13.56,2.92-10.89,5.27-25.06,6.84-36,.22,0,4.68-18.48,4.68-18.48Z"/><path class="cls-17" d="M173.14,281.55l-.51,3.41s-.22,0-.62,0c-1.24-.08-4.25-.25-7.66-.62-5.13-.51-11.22-1.41-13.64-2.9-3.7-2.26-9.76-9.16-13.7-16.07a4.29,4.29,0,0,1-.28-.51c-2.06-3.66-3.5-7.3-3.61-10.2a14.3,14.3,0,0,1,.48-4.62,11.87,11.87,0,0,1,2.08-4.17,2.27,2.27,0,0,1,.4-.48,9.55,9.55,0,0,1,2.68-2.28c.67-.29,1.41,0,2.17.87v0a13,13,0,0,1,1.94,2.87s.06.06.06.09c.14.25.28.53.45.84a1,1,0,0,1,.11.2c.31.65.62,1.33.93,2,3.47,7.55,7.16,19,10.23,22.41,1.33,1.46,7.39,4.34,12.21,6.48,3.46,1.52,6.28,2.65,6.28,2.65Z"/><path class="cls-17" d="M137.27,250.86a21.24,21.24,0,0,1-7.84,1.83c-11.71.65-14.37-9.62-14.85-16.43a10,10,0,0,1,4-.51c.83.05,1.69.14,2.41.22,1.43-.74,4-4.38,5.49-10.46l.5.24,8.45,4s-.9,2.75-1.56,5.38c-.52,2.06-.89,4.05-.58,4.6l1.07.44h0a58,58,0,0,1,2.89,10.71Z"/><path class="cls-4" d="M140.2,258.54c-.09.23-.19.46-.29.69-3,6.39-8.46,32.84-8.46,32.84.78,4.76-35.74-.94-35.83-5.26-1.29-4.59,4.56-12,7.86-15.67a10.53,10.53,0,0,0,2.61-5.86,151.67,151.67,0,0,0,.45-15.39h0l1.85-1.33a17,17,0,0,0,2.25-1.87,3.4,3.4,0,0,0,1.08-2.13,11.84,11.84,0,0,0,0-1.78c0-.28-.06-.56-.1-.84a24.21,24.21,0,0,0-1.7-5.67c3.14-1.27,8.73-.52,8.73-.52s0,.31,0,.82c0,2,0,7.28.65,8.27.82,1.24,15.78,6.65,16.57,5s-1.35-9.37-1.43-9.66h0c5,2,6.8,3.62,6.8,3.62-3,2,1.35,8.58-1,14.78Z"/><path class="cls-26" d="M130.12,203.37c0-.51-.41-6-8.74-6.27,0,0,4.09.49,4.8,2.29,0,0-2.79-2.22-5.06-1.51s-3.6,4.7-3.62,6,1.25,5.53,2.69,5.88a4.48,4.48,0,0,0,1.75,0,19.33,19.33,0,0,0-1.12,2c-3.32,6.83.1,13.5,2.92,12.76,1.8-.47,2.31,2.6,2.31,2.6l17.54-14.19s-6.44-13.32-13.47-9.57Z"/><path class="cls-27" d="M135.45,229.72s-.9,2.75-1.56,5.38c-4.94-1.38-6.43-6.57-6.89-9.35l8.45,4Z"/><path class="cls-17" d="M136.49,232.63s-11.81-2.73-10-10.07S128,210,135.63,211.38,144,216,144,218.57s-4.39,14.58-7.51,14.06Z"/><path class="cls-26" d="M144.67,214.41c-1.27-2.66-2.77-2.52-3.7-2a8.49,8.49,0,0,0-11-.94,14.36,14.36,0,0,1-6.63,7.13s1.81,1.86,7.07,1.82a8.66,8.66,0,0,0,4.69-1.76,28.27,28.27,0,0,1-6.16,4.59c6.59-1.26,11-8.88,11.45-9.69a9.43,9.43,0,0,1,1.72,4.05c.12,2-.57,5.92.58,6.07,0,0,3.88-5.24,2-9.22Z"/><path class="cls-4" d="M141.18,243.76s2.84,5,3.27,6.24c0,0-3.69-.14-5.18,2.69,0,0-.35-8.26,1.91-8.93Z"/><path class="cls-10" d="M121.62,283.18c-7.2-.07-13.3-7.55-17-13.53a10.54,10.54,0,0,0,1.5-4.37,151.67,151.67,0,0,0,.45-15.39h0l1.85-1.33a17,17,0,0,0,2.25-1.87c5.9,10,20.75,36.6,11,36.49Z"/><path class="cls-18" d="M107.6,410.63H88.85a10.3,10.3,0,0,1,.53-5c.94-2.08,2.41-3,2.05-5.54a6.78,6.78,0,0,0,5.85,2.23c.33.54,2.14,3.42,3.25,4.22s6.7.57,7.07,4.12Z"/><path class="cls-18" d="M147.88,410.63H129.12s-.7-3,.53-5c1.09-1.8.67-2.83-.13-4.32a7.22,7.22,0,0,0,3.16.6,6.55,6.55,0,0,0,2.78-1,67.07,67.07,0,0,0,5.35,5.61c1.23.88,6.69.57,7.07,4.12Z"/><path class="cls-17" d="M150.37,288.24l-.75,2.91s-9.37-2-11.43-2.41h0c-3.52-.85-7.46-1.87-10.79-3a29.39,29.39,0,0,1-5.75-2.57,3.16,3.16,0,0,1-.39-.28c-3.3-2.4-7.22-9.44-10.26-17-.43-1.05-.82-2.09-1.22-3.1a79.11,79.11,0,0,1-3.21-10.71,31.09,31.09,0,0,1-.76-5.1,11.77,11.77,0,0,1,0-1.44c.06-8.18,4.12-9.3,4.12-9.3l.28-.09c.7-.11,1.44.37,2.2,1.3a25.27,25.27,0,0,1,3,5.32c1.61,3.64,3.3,8.35,4.88,13,.87,2.56,1.72,5.13,2.56,7.49.48,1.44,1,2.79,1.41,4a39.93,39.93,0,0,0,2.37,5.5,13.64,13.64,0,0,0,3.47,3.13c3,2.17,20.32,12.27,20.32,12.27Z"/><path class="cls-4" d="M115.35,242.81c-5.42-1.5-9.61,2.74-9.61,2.74.07-8.16,4.13-9.28,4.13-9.28,1.64-.68,3.53,2.15,5.48,6.54Z"/><path class="cls-23" d="M329.29,313.52c.16.45-67,34.49-67,34.49s7.75,3.78,18.6,1.27,52.52-26.48,52.52-26.48l-4.17-9.28Z"/><path class="cls-4" d="M261.77,313.68s-22.26,35.86-81.69-29.7a8.43,8.43,0,0,0-8.33-2.53l-23.12,5.77a4.36,4.36,0,0,1,3.07.94,5.88,5.88,0,0,1,1.21,2.14c4.77,13.31,22.62,57.88,51.56,70.21,34.15,14.54,70.34,6.14,97.42-46.83Z"/><path class="cls-4" d="M413.89,328.1l-.16.3c-1.32,2.28-4.34,7.89-7.67,14-1.57,2.91-3.22,5.94-4.78,8.79-2.69,4.92-5.14,9.3-6.58,11.62s-2.52,4-2.95,4.67h0a1.12,1.12,0,0,0-.15.69,36.27,36.27,0,0,1-.09,6.17A47.36,47.36,0,0,1,376,405l-4,.59s5.66-21,7.33-32.85a22.86,22.86,0,0,0,.31-4.7c-.3-3.09.25-7.63,1.29-12.84a289.88,289.88,0,0,1,8.18-29.72c.19-.57,5.82-20.94,5.82-20.94,4.72,4.13,21.95,5.84,21.95,5.84s2.93,7.1-3,17.69Z"/><path class="cls-18" d="M363.64,410.68h16.7a9.16,9.16,0,0,0-.47-4.47c-.83-1.86-2-1.91-.15-4.82-1.06,1.09-4.47,1.55-6.89,1.22-.29.48-1.91,3.7-2.9,4.41s-5.95.5-6.29,3.66Z"/><path class="cls-10" d="M413.89,328.1l-.16.3c-1.32,2.28-8.44,15.43-11.77,21.57,3.86-15.86,1.18-31.72,1.18-31.72l10.75,9.85Z"/><path class="cls-26" d="M349.42,249.77s-.66-7.21,7.39-7.21a9.45,9.45,0,0,0-3.7,2s5.13-3,10.72,1.62,2.12,16.26,3.82,18.46,8.32,2.65,7.51,9.79-21,16.07-19.71,22c0,0-7.92-11.64-2.26-16.95,0,0-2.76,2.6-3,5.69,0,0-.75-6,3.09-8,3.4-1.71,6.18-8,5.88-9.07s-9.7-18.32-9.7-18.32Z"/><path class="cls-17" d="M360.78,280S349.33,309,346.86,307.88s-17-5.7-17-5.7l-1,3.54s13.85,10.68,21,11.14,16.78-20.53,16.78-20.53L360.78,280Z"/><path class="cls-23" d="M349.29,354.68a8.81,8.81,0,1,0-11.94-3.56,8.82,8.82,0,0,0,11.94,3.56Zm-11-20.44a14.42,14.42,0,1,1-5.83,19.54,14.44,14.44,0,0,1,5.83-19.54Z"/><path class="cls-23" d="M331.78,309.33a8.81,8.81,0,1,0,10.62-6.51,8.81,8.81,0,0,0-10.62,6.51ZM326.32,308A14.42,14.42,0,1,1,337,325.41,14.45,14.45,0,0,1,326.32,308Z"/><path class="cls-26" d="M351.69,248.75c-.1-.43,9.54,4.37,10,4.91,4.52,5,3.23,11.57.64,11.63-1.66,0-1.34,2.8-1.34,2.8l-18.5-7.82s2.23-13,9.16-11.52Z"/><path class="cls-21" d="M357.91,280.64s-2.46,2.55-2.46,10.18c0,0,3.39,5.36,12.2,6.72,0,0-7.57-16.91-9.74-16.9Z"/><path class="cls-4" d="M400.87,311.65l-.06-3.12c6.22.78,21.46-7.44,21.46-7.44s6.52,4.33,7.41,16.7c.43,6,3.19,31.57,3.49,39.19.11,2.76.15,4.74.16,5.53h0a1.08,1.08,0,0,0,.27.65,36.08,36.08,0,0,1,3.37,5.17C446.47,386,441.5,410,441.5,410l-2.21-.56s-8-24.89-13.28-35.66a22.73,22.73,0,0,0-2.37-4.07c-2-2.4-4.06-6.47-6.11-11.37-3.88-9.26-16.66-46.7-16.66-46.7Z"/><path class="cls-18" d="M428.22,410.68h16.7a9.16,9.16,0,0,0-.47-4.47c-.84-1.86-2.15-2.7-1.84-4.94a6,6,0,0,1-5.2,2,18.43,18.43,0,0,1-2.9,3.76c-1.09.78-6,.5-6.29,3.66Z"/><path class="cls-21" d="M368.78,301.13c2.24.38-.37,2.16,2.72,2.5,4.39.48,8.92.81,11.3,1.76a2.57,2.57,0,0,1,1.63,1.31c1,3.1,5.56,7.88,5.56,7.88,29.09-1.33,32.28-13.49,32.28-13.49-18.87-18.34-36.23-29.15-49.49-30.58-2.26-.25-5.13,1.19-7.18,2.1-4.64,2.07-7.69,8-7.69,8s2.34,19,10.87,20.49Z"/><path class="cls-2" d="M371.5,303.63c4.39.48,8.92.81,11.3,1.76A46.35,46.35,0,0,0,376.93,280s-4.47,18.17-5.43,23.66Z"/><path class="cls-17" d="M367.71,277.51s11-.6,13,6.33-3.69,34.62-4.9,37.48c-2.22,5.2-13,20-13,20l-4-1.2s7.19-22.68,8.8-24.93c2.52-3.52-3.25-34.7.06-37.72Z"/><path class="cls-17" d="M358.85,340.16a6.23,6.23,0,0,1-.94,2.66c-.75.91-2.91,3.11-2.94,4.39,0,0,.1.57.57.47s2.07-1.7,2.9-1.59a16,16,0,0,1-.88,3.31c-.44.72-.09,3.8.17,4.43s3.49-3.37,4.81-5.15,0-9,0-9l-3.71.49Z"/><path class="cls-21" d="M382.89,293.12c0,.16-10.45,1.91-17-1.39,0,0-5.45-17.07,2.34-16.25s12.39,3.26,12.59,7a71.22,71.22,0,0,0,2,10.65Z"/><path class="cls-17" d="M330.5,300.85s-2.86-.59-3.92.91-.35,6,1.59,5.8,2.12-3,2.33-4a9.89,9.89,0,0,0,0-2.67Z"/><path class="cls-17" d="M365.6,272.61s-3.06,11.46-7.69,8c.13-.56-.67-2.17-1.62-3.8-1.22-2.09-2.67-4.22-2.67-4.22l6.26-5.48.37-.32a16.49,16.49,0,0,0,5.35,5.79Z"/><path class="cls-27" d="M353.62,272.62s1.45,2.13,2.67,4.22c3.88-2.39,3.89-7.21,3.59-9.7l-6.26,5.48Z"/><path class="cls-17" d="M353.45,275.37s9.44-5.25,6.08-11.08S355.12,253.87,349,257s-6,6-5.4,8.22,7.35,11.39,9.89,10.18Z"/><path class="cls-26" d="M342,261.79c.43-2.59,1.74-2.84,2.66-2.66a7.55,7.55,0,0,1,9.18-3.52,12.83,12.83,0,0,0,7.43,4.47s-1.09,2-5.6,3.3a7.73,7.73,0,0,1-4.45-.36,25,25,0,0,0,6.4,2.42c-5.94.54-11.6-4.89-12.19-5.48a8.66,8.66,0,0,0-.47,3.9c.39,1.75,1.95,4.92,1,5.33,0,0-4.61-3.52-4-7.4Z"/><path class="cls-23" d="M333.64,345.88c0-.47-73.55-16.16-73.55-16.16s6.51-5.65,17.65-6,57.55,12.12,57.55,12.12l-1.65,10Z"/><path class="cls-4" d="M304.13,331.15a1.61,1.61,0,1,1-1.59,1.63,1.61,1.61,0,0,1,1.59-1.63Z"/><path class="cls-17" d="M148.56,287.18a47,47,0,0,1,5.7,2.58,11.93,11.93,0,0,1,3,4.34s0,.51-.49.51-1.54-1.83-2.33-1.54a16.28,16.28,0,0,0,1.58,3c.59.62.92,3.7.8,4.36s-4.13-2.51-5.82-4c-.89-.78-.87-2.65-1.14-4.76-.25-1.86-5.37-2.93-5.37-2.93l4.06-1.63Z"/><path class="cls-17" d="M746.08,244.25a81.55,81.55,0,0,1-6.2,6.66c-4.12,4-9.65,8.38-14.51,9.2a7.77,7.77,0,0,1-3.73-.18,22.37,22.37,0,0,1-7.26-4.42c-6.67-5.69-12.21-14.29-12.21-14.29l3.47-3.93s7.77,5.76,12.62,8.86c1.94,1.22,3.41,2,3.75,1.88,1.21-.52,22.09-14.6,22.09-14.6l2,10.82Z"/><path class="cls-2" d="M746.08,244.25a81.55,81.55,0,0,1-6.2,6.66,157.53,157.53,0,0,1-14.51,9.2,8.45,8.45,0,0,1-2.83,1.16c-2.56-.15-8.07-3.62-8.07-3.62a12.91,12.91,0,0,1-.09-2.14,16.62,16.62,0,0,1,3.88-9.36c1.94,1.22,3.41,2,3.75,1.88,1.21-.52,22.09-14.6,22.09-14.6l2,10.82Z"/><path class="cls-21" d="M709,294.82c.72,4.37,1.2,7.55,1.2,7.55a47.91,47.91,0,0,1-17.48,3.49c-2,.06-4,0-5.91-.05-3-.13-5.9-.42-8.53-.77A98.46,98.46,0,0,1,665,302.37a47.5,47.5,0,0,1,4.62-20.08c2.78-6.11,5.93-10.77,6.8-14.56,1.08-4.74-1.23-15.79-2.9-22.68-.84-3.5-1.53-5.92-1.53-5.92-5.83-8.54-3-13.56-3-13.56s2.72-1.13,6.11-2.16l.06,0c1.16-.35,2.4-.7,3.64-1a28.43,28.43,0,0,1,3.77-.62C685.82,221.5,686,214,686,214a11.75,11.75,0,0,1,4.6-.51,24.48,24.48,0,0,1,4,.51s0,6,2.79,7.2c1.43.64,4.16,1.81,6.83,2.94h0l.27.11.88.38,1.15.48.55.23.88.38,3.45,1.45c1.24,3.22-3.11,10.45-3.11,10.45a7.31,7.31,0,0,1,.3,1.62,2.45,2.45,0,0,1,0,.27,39.52,39.52,0,0,1-1,9.11c-1.19,6.22-3.07,13.36-3.51,18.15a11.39,11.39,0,0,0,.15,4,.5.5,0,0,0,0,.13c.18.56.39,1.31.61,2.22,1.22,5,2.9,14.83,4,21.69Z"/><path class="cls-21" d="M714.52,409.24l-20.63-13.41a4.91,4.91,0,0,1-2.23-4.17L692.9,287.8c0-.9-2.06-1.83-3-1.83s-3.59.38-3.59,1.28l2.41,105.09a3.42,3.42,0,0,1-1.54,2.92l-21.51,14a.72.72,0,0,0,.39,1.33L688.05,401a5.12,5.12,0,0,1,4.13,0l22,9.62a.72.72,0,0,0,.39-1.33Z"/><path class="cls-17" d="M759.11,229.65s-5.82,6.9-13.23,4a22.6,22.6,0,0,1-1.62-6.69c0-.35,0-.69,0-1,0-3.2-.15-5-.15-5h0c.34-.14,11.33-4.66,11.32-4.28-.19,8.65,3.68,13,3.68,13Z"/><path class="cls-20" d="M754.33,218.74A17.16,17.16,0,0,1,744.25,226c0-3.2-.15-5-.15-5h0c.3-.09,10.53-2.8,10.22-2.22Z"/><path class="cls-4" d="M709,294.82a69.63,69.63,0,0,1-16.15-.08,50.08,50.08,0,0,1-6.33-1.23c-6.54-1.74-12.87-5.08-16.91-11.22,2.77-6.11,5.93-10.78,6.8-14.56,1.08-4.74-1.23-15.79-2.9-22.68L675,223.41h.06l3.64-1s-1.23,13.85,18.38,14.66c6.18.26,9.64,1.1,11.5,2.13.71,7.88-6,26.52-4.26,31.71,1.21,3.63,3.31,15.81,4.62,23.91Z"/><path class="cls-17" d="M741.8,220.63s12.36,2.9,14.06-4.83,4.42-12.55-3.4-14.73-10,.43-11.2,2.87-2.63,15.73.54,16.69Z"/><path class="cls-19" d="M755.43,217.91c.17.11,2.83.93,7.87-9.11a8.72,8.72,0,0,0-.52-8c-1.84-3-8.38-5.38-13.8-6.41s-6.74,2-8,5.1-5.22,5.87-5.22,5.87c4.69,2.62,10.33-1.12,12.28-.51s2.64,3.7,2.79,4.68.37,1.81,2.83.93,1.11,3.48.71,4.32c0,0-.33,2.22,1.08,3.12Z"/><path class="cls-26" d="M787.27,410.57h7.49c1.57,0,3.31-1.57,3.75-4.45s3.66-4.44,4.36-6.8-2.88-5.67-2.88-5.67l-.6-.77-.62-.8-5.93,1.4s-.15,1.41-.24,3.21a40.23,40.23,0,0,0,0,4.11c.17,3.14-.88,6.52-3.67,7.14s-1.64,2.63-1.64,2.63Z"/><path class="cls-26" d="M735.17,410.57H755a2.26,2.26,0,0,0,.42-.12c1.32-.67.91-5.74.75-7.3,0-.29,0-.46,0-.46s-7-5.58-7.94-1.31c0,.13-.06.26-.1.39h0c-1.21,4-6.63,5.82-9.75,6.32-2.39.39-3,1.78-3.17,2.48Z"/><path class="cls-4" d="M739.17,296.16s1.06,13.22,2.3,29.11c1.69,21.58,3.73,48.1,3.93,53.12.35,8.72,1.75,22.67,1.75,22.67s3.31,3.32,9.94,1.92a228.59,228.59,0,0,0,7.59-41c0-.34.05-.69.08-1,1.57-21.45,4-66.62,4-66.62l-29.6,1.83Z"/><path class="cls-10" d="M739.17,296.16s1.06,13.22,2.3,29.11L764.68,362c0-.34.05-.69.08-1,1.57-21.45,4-66.62,4-66.62l-29.6,1.83Z"/><path class="cls-4" d="M744,297.73s19.09,47.87,31.65,70.37,16.48,28.78,16.48,28.78S799.34,394,800,392c0,0-4.8-43.44-13.21-54-4.75-6-10.33-23.94-10.6-30.22s-1.7-18.7-1.7-18.7L744,297.73Z"/><path class="cls-21" d="M773.87,297.3a51.84,51.84,0,0,1-15.9,6.6c-6.78,1.47-15.08.84-17.86,1.19a1.11,1.11,0,0,1-.81-.21c-.21-.13-1.3-8.5-2.34-19.1-.05-.41-.1-.86-.11-1.27v-.15q-.18-1.65-.33-3.36c-.14-1.59-.28-3.2-.4-4.83-.1-1.26-.19-2.53-.28-3.79l-.06-.83c-.32-4.68-.56-9.28-.63-13.38,0-.68,0-1.34,0-2v-.09c0-2.71,0-5.13.23-7.14,0-.51.1-1,.16-1.44a25.71,25.71,0,0,1,6.58-13.72l2.71-3.39c2.62.23,4.91.61,7.47-1,2.77-1.77,4-4.17,4.57-3.86,4.29,2.51,9.49,9.41,11.82,17.79a95.17,95.17,0,0,1,2.77,14.95c.22,2.05.4,4.14.51,6.25a206.09,206.09,0,0,0,3.42,26.69c.29,1.62.53,2.91.66,3.81s-1.46,1.89-2.15,2.3Z"/><path class="cls-2" d="M754.15,244.25s-2.41,20.53-18,31.92c-.1-1.26-.19-2.53-.28-3.79l-.06-.83c-.32-4.68-.56-9.28-.63-13.38,0-.68,0-1.34,0-2v-.09c0-2.41.08-4.6.23-6.47a39.29,39.29,0,0,1,18.8-5.37Z"/><path class="cls-10" d="M704.24,224.1s-.43,28-16.87,38.15-4.76,70.36-9.54,92.55,42.9,4.09,45.31-21-20.82-63.64-20.62-68.43,6.07-35.4,5.45-39.73l-3.73-1.58Z"/><path class="cls-17" d="M733.46,268.53a34.72,34.72,0,0,1-4.84,2.63c-2.62,1-6.85,1.48-11.43,1.74-10,.58-21.68-.07-21.68-.07-1.76,1.27-4.86,1.05-7.48-.42s-2-.84-3.93-1.85a1.18,1.18,0,0,1-.52-1.8,2.65,2.65,0,0,1,1.67-1.25c3.5-.91,5-.64,6.52-.19a1.67,1.67,0,0,1-.41-1.17c.11-.38,2.65,1.13,3.77,1.82,3.78.54,12.67-2.09,19.3-4.33,4-1.35,7.17-2.56,7.92-2.85s2.53-2.17,4.91-4.76c1.46,4.31,3.49,9,6.2,12.5Z"/><path class="cls-21" d="M755.92,253.36c-7.83,5.52-22.4,15.87-26.2,18-2.45,1.36-5.62,4-10.26,5.05-6.64-4.52-5-12.74-5-12.74,4-1.35,7.17-2.56,7.92-2.85,2-.77,18.2-20,18.2-20s6.17-7.93,11.73-6.63c4.83,1.14,6.92,4.72,7.78,8.2a10.39,10.39,0,0,1-4.14,11Z"/><path class="cls-2" d="M608.73,411.11H580.84a4.77,4.77,0,0,1-4.76-5.05l.45-7.82v-.07l.31-5.28.85-14.69.27-4.63.65-11.24.23-4.1a4.79,4.79,0,0,1,4.77-4.5h21.87a4.58,4.58,0,0,1,2.15.52,4.79,4.79,0,0,1,2.62,3.93l.22,3.3.65,9.48.1,1.5,1.06,15.61.84,12.49.38,5.45a4.78,4.78,0,0,1-4.77,5.1"/><polyline class="cls-28" points="576.87 392.35 576.87 392.35 577.22 386.27 576.87 392.35"/><polyline class="cls-29" points="576.84 392.89 576.87 392.35 576.87 392.35 576.84 392.89 576.84 392.89"/><path class="cls-30" d="M576.84,392.89l0-.54.35-6.08.47-8.07a30.85,30.85,0,0,0,3.17.13A71.2,71.2,0,0,0,611.11,371l.58,8.48s-8.89,11-34.85,13.45"/><path class="cls-30" d="M598.3,411.11H580.84a4.77,4.77,0,0,1-4.77-4.76c0-.09,0-.19,0-.29l.45-7.82v-.07a108.63,108.63,0,0,0,35.75-10.1l.84,12.49s-4.74,5.73-14.82,10.55"/><path class="cls-30" d="M578,373.57l.65-11.24c.75,0,1.55.07,2.41.07a48.09,48.09,0,0,0,26.61-8.15,4.79,4.79,0,0,1,2.62,3.93l.22,3.3c-3.14,2.89-12.69,10-32.51,12.09"/></g></g></svg>